<svg width="405" height="529" viewBox="0 0 405 529" fill="none" xmlns="http://www.w3.org/2000/svg">
  <path
    d="M13.2031 178.062V178.316H12.1875V179.078C12.1875 180.263 12.8646 181.279 14.2188 182.125H14.7266L15.2344 181.617V180.855C15.2344 180.178 15.1497 179.755 14.9805 179.586C15.319 179.755 16.25 179.84 17.7734 179.84C22.6823 179.501 25.1367 178.993 25.1367 178.316V177.301H23.8672L17.0117 177.809L16.5039 177.555L38.5938 175.523V175.27L39.1016 174.508H40.625L41.1328 175.27L43.9258 174.762L44.9414 178.57C44.7721 188.896 44.0104 194.059 42.6562 194.059H42.1484V194.566C40.4557 194.566 39.1862 193.043 38.3398 189.996H37.832C34.7852 191.012 33.2617 192.535 33.2617 194.566C33.2617 211.324 38.0013 221.65 47.4805 225.543L49.7656 225.797L60.6836 223.004L61.9531 225.035C64.1536 224.527 65.2539 223.85 65.2539 223.004C63.5612 222.496 62.7148 222.158 62.7148 221.988V221.734C66.9466 219.534 69.6549 216.826 70.8398 213.609C76.2565 208.701 78.9648 204.807 78.9648 201.93C81.1654 197.867 82.6042 193.128 83.2812 187.711C84.974 185.341 85.8203 178.74 85.8203 167.906V145.816C85.8203 121.103 84.7201 105.191 82.5195 98.082L82.0117 91.7344L70.8398 95.0352L60.6836 95.543L58.3984 86.9102L57.1289 84.1172C58.9909 81.4089 59.9219 79.8008 59.9219 79.293V74.9766C59.9219 74.2995 61.0221 73.9609 63.2227 73.9609H63.4766C74.1406 73.9609 87.1745 73.3685 102.578 72.1836H105.879C122.467 72.1836 131.439 73.1146 132.793 74.9766C133.809 78.0234 134.316 80.901 134.316 83.6094V84.8789C134.316 91.9883 133.301 95.543 131.27 95.543L126.699 96.0508L127.969 91.9883V91.7344C125.599 92.75 121.79 93.2578 116.543 93.2578C115.358 93.2578 114.173 93.5117 112.988 94.0195H110.195C107.487 94.0195 105.794 100.113 105.117 112.301C102.578 122.965 101.309 138.538 101.309 159.02L97.7539 193.043C97.7539 200.491 96.9922 204.215 95.4688 204.215L94.707 205.992L96.2305 208.277C95.7227 211.663 93.2682 217.503 88.8672 225.797C79.0495 237.984 69.0625 244.078 58.9062 244.078H58.3984C53.6589 244.078 46.4648 241.962 36.8164 237.73C29.707 233.499 24.6289 226.474 21.582 216.656C19.8893 203.622 18.0273 196.005 15.9961 193.805H14.7266C11.849 193.805 8.37891 194.397 4.31641 195.582C2.96224 195.582 2.28516 195.243 2.28516 194.566C3.47005 191.181 4.40104 185.849 5.07812 178.57L13.2031 178.062ZM65.2539 234.684L66.5234 236.207C65.6771 237.561 61.8685 238.238 55.0977 238.238H53.8281L47.9883 237.73H47.2266V237.984C50.2734 240.016 53.9128 241.031 58.1445 241.031C66.6081 241.031 74.5638 237.307 82.0117 229.859V228.082H81.5039L72.8711 232.145C67.793 233.329 65.2539 234.176 65.2539 234.684ZM90.8984 78.2773V78.5312C90.8984 79.2083 95.638 79.8008 105.117 80.3086C106.81 80.3086 108.841 81.5781 111.211 84.1172L114.004 84.3711C115.189 84.3711 116.035 83.7786 116.543 82.5938L113.496 81.832V81.3242C115.527 80.1393 116.543 79.1237 116.543 78.2773H116.035C109.095 77.7695 101.393 77.431 92.9297 77.2617C91.5755 77.6003 90.8984 77.9388 90.8984 78.2773ZM31.9922 219.195L30.7227 220.211V221.227C30.7227 223.089 35.3776 226.643 44.6875 231.891L48.2422 232.906H49.0039V232.398C47.819 230.875 44.6029 228.759 39.3555 226.051L34.7852 220.211C33.9388 219.534 33.0924 219.195 32.2461 219.195H31.9922ZM21.582 199.137C21.582 200.491 22.513 203.538 24.375 208.277L24.1211 211.578C24.4596 212.424 24.7982 212.848 25.1367 212.848H25.8984C26.5755 212.848 26.9141 212.086 26.9141 210.562V210.309C26.237 201.168 25.0521 196.598 23.3594 196.598H22.3438C21.8359 196.767 21.582 197.613 21.582 199.137ZM88.8672 201.676H88.3594C88.3594 204.046 87.0898 206.246 84.5508 208.277C82.5195 211.493 81.5039 213.779 81.5039 215.133H81.7578C84.4661 215.133 86.9206 212.001 89.1211 205.738L89.6289 202.691V202.438L88.8672 201.676ZM91.4062 188.219V188.98L91.9141 191.012C93.776 187.796 94.707 184.156 94.707 180.094V178.316L93.6914 177.301H92.9297C91.9141 177.301 91.4062 180.94 91.4062 188.219ZM71.8555 80.8164H69.5703V82.3398C69.5703 83.1862 72.0247 83.6094 76.9336 83.6094C80.6576 83.4401 82.5195 83.0169 82.5195 82.3398C82.5195 81.4935 78.9648 80.9857 71.8555 80.8164ZM61.4453 89.957V90.4648C61.7839 91.1419 62.4609 91.9883 63.4766 93.0039H63.9844C65.5078 92.8346 67.2852 91.7344 69.3164 89.7031V89.4492L68.8086 88.6875H66.2695C63.0534 88.6875 61.4453 89.1107 61.4453 89.957ZM62.7148 79.8008V81.0703C62.7148 82.0859 63.2227 82.9323 64.2383 83.6094H65.2539L66.5234 82.5938V82.3398C65.8464 81.6628 65.3385 79.8008 65 76.7539H63.9844C63.3073 76.7539 62.8841 77.7695 62.7148 79.8008ZM92.168 131.344V134.391L92.6758 134.898C94.0299 130.497 94.707 127.704 94.707 126.52V124.234L93.9453 123.727C93.099 123.896 92.5065 126.435 92.168 131.344ZM126.699 85.1328C126.699 88.6875 127.122 90.4648 127.969 90.4648H128.477C128.815 90.4648 129.069 89.7031 129.238 88.1797C129.069 84.9635 128.646 83.3555 127.969 83.3555H127.461C126.953 83.5247 126.699 84.1172 126.699 85.1328ZM55.0977 227.574V228.336L56.3672 228.59C58.737 228.59 60.4297 227.913 61.4453 226.559V226.051H59.4141C56.5365 226.389 55.0977 226.897 55.0977 227.574ZM98.7695 88.1797V89.1953L99.2773 89.7031C102.493 89.5339 104.102 89.026 104.102 88.1797V87.418L102.578 87.1641H100.801C99.4466 87.5026 98.7695 87.8411 98.7695 88.1797ZM96.4844 81.0703L94.4531 81.3242V82.3398L94.707 82.5938H99.2773L100.039 82.3398C100.039 81.832 98.8542 81.4089 96.4844 81.0703ZM28.1836 193.551L26.9141 194.566V194.82C27.7604 196.005 28.4375 196.682 28.9453 196.852L29.9609 196.09V194.566L28.6914 193.551H28.1836ZM26.1523 185.934L25.6445 186.695C26.4909 188.219 27.5911 188.98 28.9453 188.98V188.219C28.9453 186.695 28.099 185.934 26.4062 185.934H26.1523ZM20.5664 194.566L21.582 195.328H23.8672V194.82C23.8672 193.805 23.6133 193.212 23.1055 193.043H22.5977C21.2435 193.043 20.5664 193.551 20.5664 194.566ZM87.3438 97.5742L86.582 98.082V98.5898C86.582 100.113 87.3438 101.044 88.8672 101.383V100.113C88.8672 99.2669 88.3594 98.4206 87.3438 97.5742ZM92.6758 139.723H92.168L91.9141 141.246V142.008L92.168 143.531H92.6758L93.4375 142.77V140.23L92.6758 139.723ZM73.125 93.2578V93.5117H74.1406C76.1719 93.3424 77.1875 92.9193 77.1875 92.2422V91.7344H75.4102C74.2253 91.7344 73.4635 92.2422 73.125 93.2578ZM15.9961 177.301V177.555L13.457 178.062C14.1341 176.37 15.319 175.523 17.0117 175.523V176.285L15.9961 177.301ZM37.5781 181.109L37.832 182.125H38.5938L39.3555 181.617V179.332H38.8477C38.0013 179.84 37.5781 180.432 37.5781 181.109ZM100.039 97.0664L99.2773 97.8281V98.082C99.6159 99.4362 99.9544 100.113 100.293 100.113L101.055 99.3516V98.082L100.039 97.0664ZM33.2617 229.352H31.9922V229.859L33.2617 231.129L34.2773 230.621V230.367L33.2617 229.352ZM107.402 87.1641L106.641 87.6719L107.656 88.6875H108.418L109.18 87.6719L108.672 87.1641H107.402ZM92.6758 103.414H92.168V105.191L92.6758 105.699L93.4375 105.191V104.176L92.6758 103.414ZM53.0664 233.922L51.2891 233.668V233.922V234.43L52.0508 235.445H52.5586L53.0664 234.684V233.922ZM127.461 75.4844L126.699 75.7383V76.7539L127.969 77.0078L128.477 75.7383L127.969 75.4844H127.461ZM12.9492 178.57L13.2031 178.316C14.2188 178.486 14.8112 178.909 14.9805 179.586C13.6263 179.247 12.9492 178.909 12.9492 178.57ZM9.14062 182.633H7.87109V183.648H9.14062V182.633ZM28.9453 190.504H28.4375V192.027H28.9453V190.504ZM93.4375 149.625H92.6758V150.641H93.4375V149.625ZM25.6445 181.617H24.375V182.125H25.6445V181.617ZM87.8516 88.1797H87.0898V88.6875H87.8516V88.1797Z"
    fill="black"/>
  <path
    d="M397.887 264.996H400.426C402.288 264.996 403.219 267.197 403.219 271.598L403.727 272.359L403.98 272.613L404.234 273.629H404.488C402.965 278.368 400.51 280.738 397.125 280.738C397.125 281.585 394.078 282.092 387.984 282.262L387.477 283.023C392.385 346.331 394.84 388.225 394.84 408.707L395.602 433.336C395.602 439.599 394.417 442.73 392.047 442.73C391.201 442.9 388.746 442.984 384.684 442.984H376.559C372.327 442.984 370.211 442.138 370.211 440.445C370.042 437.229 367.841 432.066 363.609 424.957C361.409 413.108 358.701 404.983 355.484 400.582C355.484 400.074 354.215 398.382 351.676 395.504C342.874 380.777 334.664 365.712 327.047 350.309C325.523 348.447 321.884 341.422 316.129 329.234C311.22 320.432 306.142 312.73 300.895 306.129H299.879V312.477C299.879 317.555 300.387 328.049 301.402 343.961C301.402 355.81 300.048 374.43 297.34 399.82V403.375L298.863 408.707L298.102 426.988L299.371 433.59L298.102 438.668V439.684H297.34C296.493 438.837 295.647 438.414 294.801 438.414H293.277V438.668C293.954 439.853 294.293 440.868 294.293 441.715V442.984C295.478 442.984 296.324 442.561 296.832 441.715C297.848 442.223 298.355 442.9 298.355 443.746C298.355 446.624 297.171 448.062 294.801 448.062L273.219 448.57C268.479 447.893 266.109 445.947 266.109 442.73C265.263 436.806 264.501 432.574 263.824 430.035C263.824 429.189 267.887 427.158 276.012 423.941L276.266 423.688V415.309C276.266 413.277 276.773 411.839 277.789 410.992V410.23C276.604 410.23 276.012 404.645 276.012 393.473V390.426C279.566 357.757 281.344 319.247 281.344 274.898C281.513 269.651 282.021 267.027 282.867 267.027C282.867 266.35 286.337 265.842 293.277 265.504H296.07C299.625 265.504 304.449 270.751 310.543 281.246C317.652 290.387 322.646 296.988 325.523 301.051L336.441 319.332C344.736 328.98 351.591 342.184 357.008 358.941C362.424 370.621 365.895 376.461 367.418 376.461C369.618 374.26 370.719 370.875 370.719 366.305L370.211 355.895L370.973 320.602C369.957 313.831 369.449 308.837 369.449 305.621V304.605C369.449 294.957 370.042 288.355 371.227 284.801C371.227 283.447 366.826 282.77 358.023 282.77L357.262 281.754V273.375C357.262 267.958 359.632 265.25 364.371 265.25C377.236 265.081 388.408 264.996 397.887 264.996ZM400.172 267.789H397.379V268.551L399.41 269.059H399.664L400.426 268.043L400.172 267.789ZM294.293 269.059L293.531 269.312C294.039 271.513 295.139 272.613 296.832 272.613L297.34 271.852V270.074L296.07 269.059H294.293ZM392.555 274.391H391.539V275.406H392.555V274.391ZM362.848 276.676L362.34 277.438L363.355 278.453H363.863L368.434 277.945C368.095 277.099 367.418 276.676 366.402 276.676H362.848ZM374.781 287.086V288.102C375.289 289.286 375.882 289.879 376.559 289.879L377.32 289.117V285.562L376.559 284.801H376.305C375.289 284.97 374.781 285.732 374.781 287.086ZM293.023 301.305L293.277 301.812H293.531C294.039 301.812 294.293 299.358 294.293 294.449V288.102C293.447 288.102 293.023 292.503 293.023 301.305ZM300.387 290.895L299.625 291.656V294.195C299.625 295.549 300.217 297.158 301.402 299.02H302.418C301.572 293.603 300.979 290.895 300.641 290.895H300.387ZM309.781 303.082H309.273V303.59C312.49 311.715 315.367 318.147 317.906 322.887C318.922 324.072 319.43 324.918 319.43 325.426H320.445V324.664C319.26 318.401 317.229 313.238 314.352 309.176L309.781 303.082ZM326.285 316.539H325.016V317.301C325.693 320.348 327.639 323.818 330.855 327.711H331.617C329.247 320.263 327.47 316.539 326.285 316.539ZM323.492 329.488L321.969 328.727L321.715 328.98V329.234C324.085 336.005 329.247 346.077 337.203 359.449H337.711C337.203 356.741 332.464 346.754 323.492 329.488ZM343.043 341.93H342.789C344.651 347.177 346.598 350.986 348.629 353.355L349.137 353.102C346.09 346.161 344.059 342.438 343.043 341.93ZM351.168 356.656H350.66V357.164C351.845 362.411 353.538 366.22 355.738 368.59H356.246C356.246 367.913 354.553 363.935 351.168 356.656ZM339.234 363.766L338.98 364.02C341.181 370.283 342.789 373.414 343.805 373.414L344.566 372.652V372.145C344.566 371.129 342.789 368.336 339.234 363.766ZM285.914 391.441H286.168C287.184 391.441 287.776 388.056 287.945 381.285V378.746H287.438C287.268 378.746 286.76 382.978 285.914 391.441ZM353.199 386.871H351.93V388.648L354.977 392.457H355.484V389.664L353.199 387.887V386.871ZM380.113 395.758C380.113 398.297 380.452 399.566 381.129 399.566C381.806 399.397 382.145 398.635 382.145 397.281L381.891 390.426H381.383C380.706 390.426 380.283 392.203 380.113 395.758ZM284.137 398.297V401.852H285.152C285.66 401.852 286.168 400.497 286.676 397.789C286.507 396.266 286.083 395.504 285.406 395.504C284.56 395.842 284.137 396.773 284.137 398.297ZM387.73 412.262H386.969V413.277H387.73V412.262ZM364.879 415.562H363.863C363.863 417.086 365.048 418.779 367.418 420.641V420.387C367.418 419.879 366.572 418.271 364.879 415.562ZM379.098 419.625H378.844V420.133L379.098 420.641H380.113V420.133L379.098 419.625ZM285.406 422.418H285.152V423.688L285.406 424.449H285.914L286.676 423.688V423.434L285.406 422.418ZM369.957 425.973H369.195V426.48L369.957 427.496H370.211L369.957 425.973ZM273.219 427.75L271.695 428.512V429.273H276.266L276.773 429.02V428.512L276.266 427.75H273.219ZM392.555 430.289H392.047V431.559L392.809 432.574H393.316V431.559L392.555 430.289ZM284.645 433.844L283.629 434.859V435.367H284.137L285.152 434.352V433.844H284.645ZM267.887 435.875C268.395 436.721 269.156 437.145 270.172 437.145H270.934L273.98 436.383V435.367L270.172 434.859C268.648 435.198 267.887 435.536 267.887 435.875ZM387.73 435.875H386.969V436.383L387.73 435.875ZM272.711 443.492L272.203 444.254C272.372 444.931 272.965 445.27 273.98 445.27C275.504 445.1 276.266 444.762 276.266 444.254L275.758 443.492H272.711Z"
    fill="black"/>
  <path
    d="M173.74 329.58C173.22 329.233 173.22 328.8 173.74 328.28C177.727 324.12 181.627 315.453 185.44 302.28C187.173 296.907 188.733 291.187 190.12 285.12C187.52 285.293 184.833 285.38 182.06 285.38C180.673 285.38 179.287 285.38 177.9 285.38C176.513 285.38 175.127 285.293 173.74 285.12C164.033 284.08 155.453 281.74 148 278.1C136.213 272.38 130.32 264.147 130.32 253.4C130.32 244.04 135.52 233.813 145.92 222.72C149.213 219.08 152.853 215.613 156.84 212.32C160.827 209.027 165.16 205.82 169.84 202.7C165.16 199.753 161.087 195.767 157.62 190.74C150.86 181.207 147.48 172.107 147.48 163.44C147.48 156.16 149.733 150.267 154.24 145.76C158.92 141.08 164.467 138.74 170.88 138.74C182.493 138.74 190.813 145.413 195.84 158.76C198.96 166.213 200.953 175.053 201.82 185.28L216.12 177.48C217.507 170.373 218.547 165.52 219.24 162.92C221.147 156.853 223.14 152.607 225.22 150.18C228.34 146.193 231.373 144.2 234.32 144.2C237.96 144.2 240.3 146.627 241.34 151.48C242.207 159.453 235.36 167.947 220.8 176.96C220.107 179.733 219.5 184.067 218.98 189.96L217.94 202.96C221.233 201.573 224.44 199.927 227.56 198.02C237.267 191.953 243.333 184.587 245.76 175.92C246.107 175.4 246.453 175.14 246.8 175.14C247.84 175.14 248.187 175.573 247.84 176.44C245.24 185.28 238.653 193.08 228.08 199.84C224.613 201.92 221.147 203.653 217.68 205.04L217.16 212.84C226.52 207.12 235.707 204.26 244.72 204.26C260.32 204.26 268.12 210.5 268.12 222.98C268.12 230.607 264.567 239.447 257.46 249.5C246.367 265.273 231.46 275.587 212.74 280.44C207.02 320.133 194.193 339.98 174.26 339.98C168.713 339.98 163.6 338.333 158.92 335.04C154.587 331.92 152.16 327.933 151.64 323.08C151.64 322.733 151.813 322.387 152.16 322.04C152.68 322.213 153.027 322.56 153.2 323.08C155.627 331.92 161.347 336.34 170.36 336.34C184.92 336.34 195.84 318.747 203.12 283.56C199.653 284.08 196.187 284.513 192.72 284.86C191.333 290.927 189.687 296.907 187.78 302.8C183.273 316.32 179.113 325.247 175.3 329.58C174.78 330.1 174.26 330.1 173.74 329.58ZM160.48 189.18C164.12 194.033 168.28 197.933 172.96 200.88C175.04 199.667 177.12 198.453 179.2 197.24L197.4 187.62C196.36 176.527 194.367 167.34 191.42 160.06C186.393 147.233 179.113 140.82 169.58 140.82C164.38 140.82 159.873 142.9 156.06 147.06C152.42 151.22 150.6 156.507 150.6 162.92C150.6 171.24 153.893 179.993 160.48 189.18ZM221.58 174.1C224.353 172.367 227.647 169.247 231.46 164.74C235.62 159.713 237.7 155.9 237.7 153.3C237.7 151.567 237.007 150.527 235.62 150.18C234.407 150.18 232.587 151.393 230.16 153.82C227.213 157.287 224.353 164.047 221.58 174.1ZM202.34 198.8C202.34 201.053 202.253 203.653 202.08 206.6C205.547 206.253 209.013 205.647 212.48 204.78C213 199.927 213.433 195.507 213.78 191.52C214.3 187.533 214.907 183.807 215.6 180.34C211.96 182.073 207.367 184.5 201.82 187.62C202.167 191.087 202.34 194.813 202.34 198.8ZM188.3 195.16C184.487 197.587 180.76 200.187 177.12 202.96C182.84 205.56 189.34 206.86 196.62 206.86C197.14 206.86 197.66 206.86 198.18 206.86C198.18 200.793 197.92 195.16 197.4 189.96C194.627 191.52 191.593 193.253 188.3 195.16ZM188.04 281.22C189.08 281.22 190.033 281.22 190.9 281.22C192.98 271.513 194.54 261.2 195.58 250.28C196.447 242.133 197.14 234.68 197.66 227.92C191.247 232.773 187 237.973 184.92 243.52C184.4 244.733 184.053 245.947 183.88 247.16C183.707 248.2 183.62 249.24 183.62 250.28C183.62 252.88 184.313 254.96 185.7 256.52C186.22 257.04 186.133 257.3 185.44 257.3C184.747 257.3 184.14 257.04 183.62 256.52C182.233 254.267 181.54 251.927 181.54 249.5C181.54 247.42 182.06 245.08 183.1 242.48C186.047 235.547 190.987 229.22 197.92 223.5C198.093 218.3 198.18 213.707 198.18 209.72C197.14 209.72 196.013 209.72 194.8 209.72C187.173 209.72 180.327 208.247 174.26 205.3C169.927 208.94 165.68 212.927 161.52 217.26C149.04 229.74 142.8 241.353 142.8 252.1C142.8 261.807 147.913 269.26 158.14 274.46C162.3 276.713 166.807 278.447 171.66 279.66C176.513 280.7 181.973 281.22 188.04 281.22ZM211.44 214.4C211.613 213.187 211.7 211.973 211.7 210.76C211.873 209.547 212.047 208.333 212.22 207.12C208.927 208.16 205.547 208.853 202.08 209.2C201.907 212.667 201.647 216.567 201.3 220.9C204.42 218.647 207.8 216.48 211.44 214.4ZM212.74 277.06C230.073 272.727 243.16 264.147 252 251.32C258.24 242.48 261.36 234.853 261.36 228.44C261.36 217.347 253.56 211.8 237.96 211.8C230.507 211.8 223.4 213.62 216.64 217.26C216.293 230.953 214.993 250.887 212.74 277.06ZM198.44 250.28C197.573 260.853 196.013 271.08 193.76 280.96C197.227 280.787 200.433 280.44 203.38 279.92C204.593 274.027 205.807 266.053 207.02 256C208.233 245.947 209.533 233.813 210.92 219.6C207.28 221.507 203.9 223.413 200.78 225.32C200.26 232.6 199.48 240.92 198.44 250.28Z"
    fill="#024D00"/>
</svg>
