<svg width="612" height="901" viewBox="0 0 612 901" fill="none" xmlns="http://www.w3.org/2000/svg">
  <rect width="612" height="900" transform="translate(0 1)" fill="white"/>
  <rect x="5" y="1" width="600" height="900" fill="white"/>
  <line x1="6.5" y1="313" x2="6.5" y2="901" stroke="black" stroke-width="3"/>
  <line x1="5" y1="311.5" x2="340" y2="311.5" stroke="black" stroke-width="3"/>
  <line x1="7" y1="899.5" x2="605" y2="899.5" stroke="black" stroke-width="3"/>
  <line x1="338.5" y1="312.981" x2="342.5" y2="0.980783" stroke="black" stroke-width="3"/>
  <line x1="342" y1="2.5" x2="605" y2="2.5" stroke="black" stroke-width="3"/>
  <line x1="606.5" y1="1" x2="606.5" y2="370" stroke="black" stroke-width="3"/>
  <line x1="606.5" y1="460" x2="606.5" y2="901" stroke="black" stroke-width="3"/>
  <line x1="606.332" y1="370.69" x2="564.332" y2="451.69" stroke="black" stroke-width="3"/>
  <rect x="406" y="301" width="25" height="25" fill="#D9D9D9"/>
  <rect x="406" y="121" width="25" height="25" fill="#D9D9D9"/>
  <rect x="406" y="796" width="25" height="25" fill="#D9D9D9"/>
  <rect x="406" y="656" width="25" height="25" fill="#D9D9D9"/>
  <rect x="406" y="506" width="25" height="25" fill="#D9D9D9"/>
  <rect x="272" y="656" width="25" height="25" fill="#D9D9D9"/>
  <rect x="108" y="796" width="25" height="25" fill="#D9D9D9"/>
  <rect x="108" y="506" width="25" height="25" fill="#D9D9D9"/>
  <rect x="108" y="656" width="25" height="25" fill="#D9D9D9"/>
  <rect x="280" y="506" width="25" height="25" fill="#D9D9D9"/>
  <rect x="453" y="506" width="152" height="392" fill="#D9D9D9"/>
  <path
    d="M505.057 706V697.273H508.006C508.69 697.273 509.25 697.396 509.685 697.643C510.122 697.888 510.446 698.219 510.656 698.636C510.866 699.054 510.972 699.52 510.972 700.034C510.972 700.548 510.866 701.016 510.656 701.436C510.449 701.857 510.128 702.192 509.693 702.442C509.259 702.689 508.702 702.812 508.023 702.812H505.909V701.875H507.989C508.457 701.875 508.834 701.794 509.118 701.632C509.402 701.47 509.608 701.251 509.736 700.976C509.866 700.697 509.932 700.384 509.932 700.034C509.932 699.685 509.866 699.372 509.736 699.097C509.608 698.821 509.401 698.605 509.114 698.449C508.827 698.29 508.446 698.21 507.972 698.21H506.114V706H505.057ZM512.141 706H511.033L514.238 697.273H515.329L518.533 706H517.425L514.817 698.653H514.749L512.141 706ZM512.55 702.591H517.016V703.528H512.55V702.591ZM519.893 706V697.273H522.842C523.523 697.273 524.083 697.389 524.521 697.622C524.958 697.852 525.282 698.169 525.492 698.572C525.702 698.976 525.808 699.435 525.808 699.949C525.808 700.463 525.702 700.919 525.492 701.317C525.282 701.714 524.96 702.027 524.525 702.254C524.09 702.479 523.535 702.591 522.859 702.591H520.472V701.636H522.825C523.29 701.636 523.665 701.568 523.95 701.432C524.237 701.295 524.444 701.102 524.572 700.852C524.702 700.599 524.768 700.298 524.768 699.949C524.768 699.599 524.702 699.294 524.572 699.033C524.441 698.771 524.232 698.57 523.945 698.428C523.658 698.283 523.279 698.21 522.808 698.21H520.95V706H519.893ZM524.001 702.08L526.148 706H524.921L522.808 702.08H524.001ZM527.569 706V697.273H528.625V701.602H528.728L532.648 697.273H534.029L530.364 701.21L534.029 706H532.75L529.716 701.943L528.625 703.17V706H527.569ZM536.453 697.273V706H535.397V697.273H536.453ZM538.572 706V697.273H543.839V698.21H539.629V701.159H543.567V702.097H539.629V705.062H543.908V706H538.572ZM545.267 698.21V697.273H551.812V698.21H549.068V706H548.011V698.21H545.267Z"
    fill="black"/>
  <rect x="564" y="147" width="31" height="92" fill="white" stroke="#008D06" stroke-width="2"/>
  <path
    d="M584 230.943H575.273V227.994C575.273 227.31 575.396 226.75 575.643 226.315C575.888 225.878 576.219 225.554 576.636 225.344C577.054 225.134 577.52 225.028 578.034 225.028C578.548 225.028 579.016 225.134 579.436 225.344C579.857 225.551 580.192 225.872 580.442 226.307C580.689 226.741 580.812 227.298 580.812 227.977V230.091H579.875V228.011C579.875 227.543 579.794 227.166 579.632 226.882C579.47 226.598 579.251 226.392 578.976 226.264C578.697 226.134 578.384 226.068 578.034 226.068C577.685 226.068 577.372 226.134 577.097 226.264C576.821 226.392 576.605 226.599 576.449 226.886C576.29 227.173 576.21 227.554 576.21 228.028V229.886H584V230.943ZM584 223.859V224.967L575.273 221.762V220.671L584 217.467V218.575L576.653 221.183V221.251L584 223.859ZM580.591 223.45V218.984H581.528V223.45H580.591ZM584 216.107H575.273V213.158C575.273 212.477 575.389 211.917 575.622 211.479C575.852 211.042 576.169 210.718 576.572 210.508C576.976 210.298 577.435 210.192 577.949 210.192C578.463 210.192 578.919 210.298 579.317 210.508C579.714 210.718 580.027 211.04 580.254 211.475C580.479 211.91 580.591 212.465 580.591 213.141V215.528H579.636V213.175C579.636 212.71 579.568 212.335 579.432 212.05C579.295 211.763 579.102 211.556 578.852 211.428C578.599 211.298 578.298 211.232 577.949 211.232C577.599 211.232 577.294 211.298 577.033 211.428C576.771 211.559 576.57 211.768 576.428 212.055C576.283 212.342 576.21 212.721 576.21 213.192V215.05H584V216.107ZM580.08 211.999L584 209.852V211.079L580.08 213.192V211.999ZM584 208.074V209.181L575.273 205.977V204.886L584 201.681V202.789L576.653 205.397V205.466L584 208.074ZM580.591 207.664V203.199H581.528V207.664H580.591ZM575.273 196.947V195.686L582.517 192.72V192.618L575.273 189.652V188.39H584V189.379H577.369V189.464L584 192.191V193.146L577.369 195.873V195.958H584V196.947H575.273ZM578.545 183.612H579.312L580.403 187.072H579.636L578.545 183.612ZM584 186.271H575.273V185.214H583.062V181.158H584V186.271ZM579.636 172.498C580.557 172.498 581.352 172.664 582.023 172.996C582.693 173.328 583.21 173.784 583.574 174.364C583.938 174.944 584.119 175.605 584.119 176.35C584.119 177.094 583.938 177.756 583.574 178.336C583.21 178.915 582.693 179.371 582.023 179.703C581.352 180.036 580.557 180.202 579.636 180.202C578.716 180.202 577.92 180.036 577.25 179.703C576.58 179.371 576.062 178.915 575.699 178.336C575.335 177.756 575.153 177.094 575.153 176.35C575.153 175.605 575.335 174.944 575.699 174.364C576.062 173.784 576.58 173.328 577.25 172.996C577.92 172.664 578.716 172.498 579.636 172.498ZM579.636 173.52C578.881 173.52 578.243 173.647 577.723 173.9C577.203 174.15 576.81 174.489 576.543 174.918C576.276 175.344 576.142 175.821 576.142 176.35C576.142 176.878 576.276 177.357 576.543 177.786C576.81 178.212 577.203 178.551 577.723 178.804C578.243 179.054 578.881 179.179 579.636 179.179C580.392 179.179 581.03 179.054 581.55 178.804C582.07 178.551 582.463 178.212 582.73 177.786C582.997 177.357 583.131 176.878 583.131 176.35C583.131 175.821 582.997 175.344 582.73 174.918C582.463 174.489 582.07 174.15 581.55 173.9C581.03 173.647 580.392 173.52 579.636 173.52ZM584 168.027V170.721H575.273V167.908C575.273 167.061 575.447 166.337 575.797 165.735C576.143 165.132 576.642 164.671 577.293 164.35C577.94 164.029 578.716 163.868 579.619 163.868C580.528 163.868 581.311 164.03 581.967 164.354C582.621 164.678 583.124 165.15 583.476 165.769C583.825 166.388 584 167.141 584 168.027ZM583.062 169.664V168.096C583.062 167.374 582.923 166.776 582.645 166.301C582.366 165.827 581.97 165.473 581.456 165.24C580.942 165.007 580.33 164.891 579.619 164.891C578.915 164.891 578.308 165.006 577.8 165.236C577.288 165.466 576.896 165.81 576.624 166.267C576.348 166.725 576.21 167.294 576.21 167.976V169.664H583.062ZM584 162.148V163.256L575.273 160.051V158.96L584 155.756V156.864L576.653 159.472V159.54L584 162.148ZM580.591 161.739V157.273H581.528V161.739H580.591Z"
    fill="black"/>
  <circle cx="554" cy="39" r="25" fill="#008D06"/>
  <path
    d="M541.482 37.9077C541.458 37.6473 541.353 37.4448 541.165 37.3004C540.981 37.1536 540.717 37.0803 540.374 37.0803C540.146 37.0803 539.957 37.1098 539.805 37.169C539.654 37.2282 539.54 37.3099 539.464 37.4141C539.389 37.5159 539.35 37.633 539.347 37.7656C539.343 37.8745 539.364 37.9704 539.411 38.0533C539.461 38.1361 539.532 38.2095 539.624 38.2734C539.719 38.335 539.833 38.3894 539.965 38.4368C540.098 38.4841 540.247 38.5256 540.413 38.5611L541.038 38.7031C541.397 38.7812 541.715 38.8854 541.989 39.0156C542.266 39.1458 542.498 39.3009 542.685 39.4808C542.875 39.6607 543.018 39.8679 543.115 40.1023C543.212 40.3366 543.262 40.5994 543.264 40.8906C543.262 41.3499 543.146 41.7441 542.916 42.0732C542.687 42.4022 542.356 42.6544 541.925 42.8295C541.497 43.0047 540.98 43.0923 540.374 43.0923C539.765 43.0923 539.235 43.0012 538.783 42.8189C538.33 42.6366 537.979 42.3596 537.728 41.9879C537.477 41.6162 537.348 41.1463 537.341 40.5781H539.024C539.038 40.8125 539.101 41.0078 539.212 41.1641C539.324 41.3203 539.476 41.4387 539.67 41.5192C539.867 41.5997 540.094 41.6399 540.352 41.6399C540.589 41.6399 540.79 41.608 540.956 41.544C541.124 41.4801 541.253 41.3913 541.343 41.2777C541.433 41.1641 541.479 41.0339 541.482 40.8871C541.479 40.7498 541.437 40.6326 541.354 40.5355C541.271 40.4361 541.143 40.3509 540.97 40.2798C540.8 40.2064 540.582 40.139 540.317 40.0774L539.557 39.8999C538.927 39.7554 538.431 39.5223 538.069 39.2003C537.707 38.8759 537.527 38.438 537.529 37.8864C537.527 37.4366 537.647 37.0424 537.891 36.7038C538.135 36.3653 538.473 36.1013 538.903 35.9119C539.334 35.7225 539.826 35.6278 540.377 35.6278C540.941 35.6278 541.429 35.7237 541.844 35.9155C542.26 36.1049 542.584 36.3712 542.813 36.7145C543.043 37.0578 543.16 37.4555 543.165 37.9077H541.482ZM547.231 37.5455V38.8239H543.79V37.5455H547.231ZM544.511 36.2386H546.247V41.2848C546.247 41.3913 546.264 41.4777 546.297 41.544C546.332 41.608 546.383 41.6541 546.45 41.6825C546.516 41.7086 546.595 41.7216 546.688 41.7216C546.754 41.7216 546.824 41.7157 546.897 41.7038C546.973 41.6896 547.03 41.6778 547.067 41.6683L547.33 42.9219C547.247 42.9455 547.13 42.9751 546.979 43.0107C546.83 43.0462 546.651 43.0687 546.442 43.0781C546.035 43.0971 545.686 43.0497 545.395 42.9361C545.106 42.8201 544.885 42.6402 544.731 42.3963C544.579 42.1525 544.506 41.8459 544.511 41.4766V36.2386ZM550.604 43.103C550.031 43.103 549.539 42.9858 549.127 42.7514C548.718 42.5147 548.402 42.1856 548.179 41.7642C547.959 41.3404 547.849 40.8492 547.849 40.2905C547.849 39.7294 547.959 39.2382 548.179 38.8168C548.402 38.393 548.718 38.0639 549.127 37.8295C549.539 37.5928 550.031 37.4744 550.604 37.4744C551.177 37.4744 551.669 37.5928 552.078 37.8295C552.49 38.0639 552.806 38.393 553.026 38.8168C553.249 39.2382 553.36 39.7294 553.36 40.2905C553.36 40.8492 553.249 41.3404 553.026 41.7642C552.806 42.1856 552.49 42.5147 552.078 42.7514C551.669 42.9858 551.177 43.103 550.604 43.103ZM550.615 41.7926C550.823 41.7926 551 41.7287 551.144 41.6009C551.289 41.473 551.399 41.2955 551.474 41.0682C551.553 40.8409 551.592 40.5781 551.592 40.2798C551.592 39.9768 551.553 39.7116 551.474 39.4844C551.399 39.2571 551.289 39.0795 551.144 38.9517C551 38.8239 550.823 38.7599 550.615 38.7599C550.4 38.7599 550.217 38.8239 550.068 38.9517C549.921 39.0795 549.809 39.2571 549.731 39.4844C549.655 39.7116 549.617 39.9768 549.617 40.2798C549.617 40.5781 549.655 40.8409 549.731 41.0682C549.809 41.2955 549.921 41.473 550.068 41.6009C550.217 41.7287 550.4 41.7926 550.615 41.7926ZM555.986 35.7273V43H554.25V35.7273H555.986ZM557.091 43V37.5455H558.828V43H557.091ZM557.961 36.9098C557.718 36.9098 557.508 36.8293 557.333 36.6683C557.158 36.505 557.07 36.3085 557.07 36.0788C557.07 35.8516 557.158 35.6574 557.333 35.4964C557.508 35.3331 557.718 35.2514 557.961 35.2514C558.208 35.2514 558.417 35.3331 558.59 35.4964C558.765 35.6574 558.853 35.8516 558.853 36.0788C558.853 36.3085 558.765 36.505 558.59 36.6683C558.417 36.8293 558.208 36.9098 557.961 36.9098ZM561.499 41.5689L561.506 39.4986H561.748L563.282 37.5455H565.249L562.969 40.3438H562.511L561.499 41.5689ZM559.933 43V35.7273H561.67V43H559.933ZM563.321 43L561.893 40.7344L563.037 39.5021L565.327 43H563.321ZM571.368 35.7273V43H569.614V37.3679H569.571L567.945 38.3622V36.8423L569.738 35.7273H571.368Z"
    fill="white"/>
  <circle cx="468" cy="53" r="25" fill="#008D06"/>
  <path
    d="M455.482 51.9077C455.458 51.6473 455.353 51.4448 455.165 51.3004C454.981 51.1536 454.717 51.0803 454.374 51.0803C454.146 51.0803 453.957 51.1098 453.805 51.169C453.654 51.2282 453.54 51.3099 453.464 51.4141C453.389 51.5159 453.35 51.633 453.347 51.7656C453.343 51.8745 453.364 51.9704 453.411 52.0533C453.461 52.1361 453.532 52.2095 453.624 52.2734C453.719 52.335 453.833 52.3894 453.965 52.4368C454.098 52.4841 454.247 52.5256 454.413 52.5611L455.038 52.7031C455.397 52.7812 455.715 52.8854 455.989 53.0156C456.266 53.1458 456.498 53.3009 456.685 53.4808C456.875 53.6607 457.018 53.8679 457.115 54.1023C457.212 54.3366 457.262 54.5994 457.264 54.8906C457.262 55.3499 457.146 55.7441 456.916 56.0732C456.687 56.4022 456.356 56.6544 455.925 56.8295C455.497 57.0047 454.98 57.0923 454.374 57.0923C453.765 57.0923 453.235 57.0012 452.783 56.8189C452.33 56.6366 451.979 56.3596 451.728 55.9879C451.477 55.6162 451.348 55.1463 451.341 54.5781H453.024C453.038 54.8125 453.101 55.0078 453.212 55.1641C453.324 55.3203 453.476 55.4387 453.67 55.5192C453.867 55.5997 454.094 55.6399 454.352 55.6399C454.589 55.6399 454.79 55.608 454.956 55.544C455.124 55.4801 455.253 55.3913 455.343 55.2777C455.433 55.1641 455.479 55.0339 455.482 54.8871C455.479 54.7498 455.437 54.6326 455.354 54.5355C455.271 54.4361 455.143 54.3509 454.97 54.2798C454.8 54.2064 454.582 54.139 454.317 54.0774L453.557 53.8999C452.927 53.7554 452.431 53.5223 452.069 53.2003C451.707 52.8759 451.527 52.438 451.529 51.8864C451.527 51.4366 451.647 51.0424 451.891 50.7038C452.135 50.3653 452.473 50.1013 452.903 49.9119C453.334 49.7225 453.826 49.6278 454.377 49.6278C454.941 49.6278 455.429 49.7237 455.844 49.9155C456.26 50.1049 456.584 50.3712 456.813 50.7145C457.043 51.0578 457.16 51.4555 457.165 51.9077H455.482ZM461.231 51.5455V52.8239H457.79V51.5455H461.231ZM458.511 50.2386H460.247V55.2848C460.247 55.3913 460.264 55.4777 460.297 55.544C460.332 55.608 460.383 55.6541 460.45 55.6825C460.516 55.7086 460.595 55.7216 460.688 55.7216C460.754 55.7216 460.824 55.7157 460.897 55.7038C460.973 55.6896 461.03 55.6778 461.067 55.6683L461.33 56.9219C461.247 56.9455 461.13 56.9751 460.979 57.0107C460.83 57.0462 460.651 57.0687 460.442 57.0781C460.035 57.0971 459.686 57.0497 459.395 56.9361C459.106 56.8201 458.885 56.6402 458.731 56.3963C458.579 56.1525 458.506 55.8459 458.511 55.4766V50.2386ZM464.604 57.103C464.031 57.103 463.539 56.9858 463.127 56.7514C462.718 56.5147 462.402 56.1856 462.179 55.7642C461.959 55.3404 461.849 54.8492 461.849 54.2905C461.849 53.7294 461.959 53.2382 462.179 52.8168C462.402 52.393 462.718 52.0639 463.127 51.8295C463.539 51.5928 464.031 51.4744 464.604 51.4744C465.177 51.4744 465.669 51.5928 466.078 51.8295C466.49 52.0639 466.806 52.393 467.026 52.8168C467.249 53.2382 467.36 53.7294 467.36 54.2905C467.36 54.8492 467.249 55.3404 467.026 55.7642C466.806 56.1856 466.49 56.5147 466.078 56.7514C465.669 56.9858 465.177 57.103 464.604 57.103ZM464.615 55.7926C464.823 55.7926 465 55.7287 465.144 55.6009C465.289 55.473 465.399 55.2955 465.474 55.0682C465.553 54.8409 465.592 54.5781 465.592 54.2798C465.592 53.9768 465.553 53.7116 465.474 53.4844C465.399 53.2571 465.289 53.0795 465.144 52.9517C465 52.8239 464.823 52.7599 464.615 52.7599C464.4 52.7599 464.217 52.8239 464.068 52.9517C463.921 53.0795 463.809 53.2571 463.731 53.4844C463.655 53.7116 463.617 53.9768 463.617 54.2798C463.617 54.5781 463.655 54.8409 463.731 55.0682C463.809 55.2955 463.921 55.473 464.068 55.6009C464.217 55.7287 464.4 55.7926 464.615 55.7926ZM469.986 49.7273V57H468.25V49.7273H469.986ZM471.091 57V51.5455H472.828V57H471.091ZM471.961 50.9098C471.718 50.9098 471.508 50.8293 471.333 50.6683C471.158 50.505 471.07 50.3085 471.07 50.0788C471.07 49.8516 471.158 49.6574 471.333 49.4964C471.508 49.3331 471.718 49.2514 471.961 49.2514C472.208 49.2514 472.417 49.3331 472.59 49.4964C472.765 49.6574 472.853 49.8516 472.853 50.0788C472.853 50.3085 472.765 50.505 472.59 50.6683C472.417 50.8293 472.208 50.9098 471.961 50.9098ZM475.499 55.5689L475.506 53.4986H475.748L477.282 51.5455H479.249L476.969 54.3438H476.511L475.499 55.5689ZM473.933 57V49.7273H475.67V57H473.933ZM477.321 57L475.893 54.7344L477.037 53.5021L479.327 57H477.321ZM484.771 57.0994C484.217 57.0994 483.726 57.0047 483.298 56.8153C482.871 56.6236 482.535 56.3596 482.289 56.0234C482.043 55.6873 481.917 55.3002 481.913 54.8622H483.681C483.688 55.0208 483.739 55.1617 483.834 55.2848C483.929 55.4055 484.058 55.5002 484.221 55.5689C484.384 55.6375 484.57 55.6719 484.778 55.6719C484.987 55.6719 485.17 55.6352 485.329 55.5618C485.49 55.486 485.615 55.383 485.705 55.2528C485.795 55.1203 485.839 54.9687 485.837 54.7983C485.839 54.6278 485.79 54.4763 485.691 54.3438C485.592 54.2112 485.451 54.1082 485.268 54.0348C485.089 53.9614 484.875 53.9247 484.629 53.9247H483.923V52.6747H484.629C484.845 52.6747 485.034 52.6392 485.197 52.5682C485.363 52.4972 485.492 52.3977 485.585 52.2699C485.677 52.1397 485.722 51.9905 485.719 51.8224C485.722 51.6591 485.683 51.5159 485.602 51.3928C485.524 51.2673 485.414 51.1702 485.272 51.1016C485.132 51.0329 484.97 50.9986 484.786 50.9986C484.591 50.9986 484.415 51.0329 484.256 51.1016C484.1 51.1702 483.976 51.2673 483.884 51.3928C483.791 51.5182 483.743 51.6638 483.738 51.8295H482.058C482.063 51.3963 482.184 51.0152 482.42 50.6861C482.657 50.3546 482.979 50.0954 483.386 49.9084C483.796 49.7214 484.262 49.6278 484.786 49.6278C485.306 49.6278 485.764 49.719 486.16 49.9013C486.555 50.0836 486.863 50.3321 487.083 50.647C487.303 50.9595 487.413 51.3134 487.413 51.7088C487.416 52.1184 487.282 52.4557 487.012 52.7209C486.745 52.986 486.4 53.1494 485.979 53.2109V53.2678C486.542 53.334 486.967 53.5163 487.254 53.8146C487.542 54.1129 487.686 54.4858 487.683 54.9332C487.683 55.3546 487.559 55.7287 487.31 56.0554C487.064 56.3797 486.721 56.6354 486.281 56.8224C485.843 57.0071 485.339 57.0994 484.771 57.0994Z"
    fill="white"/>
  <circle cx="462" cy="215" r="25" fill="#008D06"/>
  <path
    d="M449.482 213.908C449.458 213.647 449.353 213.445 449.165 213.3C448.981 213.154 448.717 213.08 448.374 213.08C448.146 213.08 447.957 213.11 447.805 213.169C447.654 213.228 447.54 213.31 447.464 213.414C447.389 213.516 447.35 213.633 447.347 213.766C447.343 213.875 447.364 213.97 447.411 214.053C447.461 214.136 447.532 214.21 447.624 214.273C447.719 214.335 447.833 214.389 447.965 214.437C448.098 214.484 448.247 214.526 448.413 214.561L449.038 214.703C449.397 214.781 449.715 214.885 449.989 215.016C450.266 215.146 450.498 215.301 450.685 215.481C450.875 215.661 451.018 215.868 451.115 216.102C451.212 216.337 451.262 216.599 451.264 216.891C451.262 217.35 451.146 217.744 450.916 218.073C450.687 218.402 450.356 218.654 449.925 218.83C449.497 219.005 448.98 219.092 448.374 219.092C447.765 219.092 447.235 219.001 446.783 218.819C446.33 218.637 445.979 218.36 445.728 217.988C445.477 217.616 445.348 217.146 445.341 216.578H447.024C447.038 216.812 447.101 217.008 447.212 217.164C447.324 217.32 447.476 217.439 447.67 217.519C447.867 217.6 448.094 217.64 448.352 217.64C448.589 217.64 448.79 217.608 448.956 217.544C449.124 217.48 449.253 217.391 449.343 217.278C449.433 217.164 449.479 217.034 449.482 216.887C449.479 216.75 449.437 216.633 449.354 216.536C449.271 216.436 449.143 216.351 448.97 216.28C448.8 216.206 448.582 216.139 448.317 216.077L447.557 215.9C446.927 215.755 446.431 215.522 446.069 215.2C445.707 214.876 445.527 214.438 445.529 213.886C445.527 213.437 445.647 213.042 445.891 212.704C446.135 212.365 446.473 212.101 446.903 211.912C447.334 211.723 447.826 211.628 448.377 211.628C448.941 211.628 449.429 211.724 449.844 211.915C450.26 212.105 450.584 212.371 450.813 212.714C451.043 213.058 451.16 213.455 451.165 213.908H449.482ZM455.231 213.545V214.824H451.79V213.545H455.231ZM452.511 212.239H454.247V217.285C454.247 217.391 454.264 217.478 454.297 217.544C454.332 217.608 454.383 217.654 454.45 217.683C454.516 217.709 454.595 217.722 454.688 217.722C454.754 217.722 454.824 217.716 454.897 217.704C454.973 217.69 455.03 217.678 455.067 217.668L455.33 218.922C455.247 218.946 455.13 218.975 454.979 219.011C454.83 219.046 454.651 219.069 454.442 219.078C454.035 219.097 453.686 219.05 453.395 218.936C453.106 218.82 452.885 218.64 452.731 218.396C452.579 218.152 452.506 217.846 452.511 217.477V212.239ZM458.604 219.103C458.031 219.103 457.539 218.986 457.127 218.751C456.718 218.515 456.402 218.186 456.179 217.764C455.959 217.34 455.849 216.849 455.849 216.29C455.849 215.729 455.959 215.238 456.179 214.817C456.402 214.393 456.718 214.064 457.127 213.83C457.539 213.593 458.031 213.474 458.604 213.474C459.177 213.474 459.669 213.593 460.078 213.83C460.49 214.064 460.806 214.393 461.026 214.817C461.249 215.238 461.36 215.729 461.36 216.29C461.36 216.849 461.249 217.34 461.026 217.764C460.806 218.186 460.49 218.515 460.078 218.751C459.669 218.986 459.177 219.103 458.604 219.103ZM458.615 217.793C458.823 217.793 459 217.729 459.144 217.601C459.289 217.473 459.399 217.295 459.474 217.068C459.553 216.841 459.592 216.578 459.592 216.28C459.592 215.977 459.553 215.712 459.474 215.484C459.399 215.257 459.289 215.08 459.144 214.952C459 214.824 458.823 214.76 458.615 214.76C458.4 214.76 458.217 214.824 458.068 214.952C457.921 215.08 457.809 215.257 457.731 215.484C457.655 215.712 457.617 215.977 457.617 216.28C457.617 216.578 457.655 216.841 457.731 217.068C457.809 217.295 457.921 217.473 458.068 217.601C458.217 217.729 458.4 217.793 458.615 217.793ZM463.986 211.727V219H462.25V211.727H463.986ZM465.091 219V213.545H466.828V219H465.091ZM465.961 212.91C465.718 212.91 465.508 212.829 465.333 212.668C465.158 212.505 465.07 212.308 465.07 212.079C465.07 211.852 465.158 211.657 465.333 211.496C465.508 211.333 465.718 211.251 465.961 211.251C466.208 211.251 466.417 211.333 466.59 211.496C466.765 211.657 466.853 211.852 466.853 212.079C466.853 212.308 466.765 212.505 466.59 212.668C466.417 212.829 466.208 212.91 465.961 212.91ZM469.499 217.569L469.506 215.499H469.748L471.282 213.545H473.249L470.969 216.344H470.511L469.499 217.569ZM467.933 219V211.727H469.67V219H467.933ZM471.321 219L469.893 216.734L471.037 215.502L473.327 219H471.321ZM475.916 217.793V216.422L478.896 211.727H480.114V213.588H479.407L477.663 216.351V216.408H481.978V217.793H475.916ZM479.428 219V217.374L479.464 216.773V211.727H481.108V219H479.428Z"
    fill="white"/>
  <circle cx="352" cy="519" r="25" fill="#008D06"/>
  <path
    d="M339.482 517.908C339.458 517.647 339.353 517.445 339.165 517.3C338.981 517.154 338.717 517.08 338.374 517.08C338.146 517.08 337.957 517.11 337.805 517.169C337.654 517.228 337.54 517.31 337.464 517.414C337.389 517.516 337.35 517.633 337.347 517.766C337.343 517.875 337.364 517.97 337.411 518.053C337.461 518.136 337.532 518.21 337.624 518.273C337.719 518.335 337.833 518.389 337.965 518.437C338.098 518.484 338.247 518.526 338.413 518.561L339.038 518.703C339.397 518.781 339.715 518.885 339.989 519.016C340.266 519.146 340.498 519.301 340.685 519.481C340.875 519.661 341.018 519.868 341.115 520.102C341.212 520.337 341.262 520.599 341.264 520.891C341.262 521.35 341.146 521.744 340.916 522.073C340.687 522.402 340.356 522.654 339.925 522.83C339.497 523.005 338.98 523.092 338.374 523.092C337.765 523.092 337.235 523.001 336.783 522.819C336.33 522.637 335.979 522.36 335.728 521.988C335.477 521.616 335.348 521.146 335.341 520.578H337.024C337.038 520.812 337.101 521.008 337.212 521.164C337.324 521.32 337.476 521.439 337.67 521.519C337.867 521.6 338.094 521.64 338.352 521.64C338.589 521.64 338.79 521.608 338.956 521.544C339.124 521.48 339.253 521.391 339.343 521.278C339.433 521.164 339.479 521.034 339.482 520.887C339.479 520.75 339.437 520.633 339.354 520.536C339.271 520.436 339.143 520.351 338.97 520.28C338.8 520.206 338.582 520.139 338.317 520.077L337.557 519.9C336.927 519.755 336.431 519.522 336.069 519.2C335.707 518.876 335.527 518.438 335.529 517.886C335.527 517.437 335.647 517.042 335.891 516.704C336.135 516.365 336.473 516.101 336.903 515.912C337.334 515.723 337.826 515.628 338.377 515.628C338.941 515.628 339.429 515.724 339.844 515.915C340.26 516.105 340.584 516.371 340.813 516.714C341.043 517.058 341.16 517.455 341.165 517.908H339.482ZM345.231 517.545V518.824H341.79V517.545H345.231ZM342.511 516.239H344.247V521.285C344.247 521.391 344.264 521.478 344.297 521.544C344.332 521.608 344.383 521.654 344.45 521.683C344.516 521.709 344.595 521.722 344.688 521.722C344.754 521.722 344.824 521.716 344.897 521.704C344.973 521.69 345.03 521.678 345.067 521.668L345.33 522.922C345.247 522.946 345.13 522.975 344.979 523.011C344.83 523.046 344.651 523.069 344.442 523.078C344.035 523.097 343.686 523.05 343.395 522.936C343.106 522.82 342.885 522.64 342.731 522.396C342.579 522.152 342.506 521.846 342.511 521.477V516.239ZM348.604 523.103C348.031 523.103 347.539 522.986 347.127 522.751C346.718 522.515 346.402 522.186 346.179 521.764C345.959 521.34 345.849 520.849 345.849 520.29C345.849 519.729 345.959 519.238 346.179 518.817C346.402 518.393 346.718 518.064 347.127 517.83C347.539 517.593 348.031 517.474 348.604 517.474C349.177 517.474 349.669 517.593 350.078 517.83C350.49 518.064 350.806 518.393 351.026 518.817C351.249 519.238 351.36 519.729 351.36 520.29C351.36 520.849 351.249 521.34 351.026 521.764C350.806 522.186 350.49 522.515 350.078 522.751C349.669 522.986 349.177 523.103 348.604 523.103ZM348.615 521.793C348.823 521.793 349 521.729 349.144 521.601C349.289 521.473 349.399 521.295 349.474 521.068C349.553 520.841 349.592 520.578 349.592 520.28C349.592 519.977 349.553 519.712 349.474 519.484C349.399 519.257 349.289 519.08 349.144 518.952C349 518.824 348.823 518.76 348.615 518.76C348.4 518.76 348.217 518.824 348.068 518.952C347.921 519.08 347.809 519.257 347.731 519.484C347.655 519.712 347.617 519.977 347.617 520.28C347.617 520.578 347.655 520.841 347.731 521.068C347.809 521.295 347.921 521.473 348.068 521.601C348.217 521.729 348.4 521.793 348.615 521.793ZM353.986 515.727V523H352.25V515.727H353.986ZM355.091 523V517.545H356.828V523H355.091ZM355.961 516.91C355.718 516.91 355.508 516.829 355.333 516.668C355.158 516.505 355.07 516.308 355.07 516.079C355.07 515.852 355.158 515.657 355.333 515.496C355.508 515.333 355.718 515.251 355.961 515.251C356.208 515.251 356.417 515.333 356.59 515.496C356.765 515.657 356.853 515.852 356.853 516.079C356.853 516.308 356.765 516.505 356.59 516.668C356.417 516.829 356.208 516.91 355.961 516.91ZM359.499 521.569L359.506 519.499H359.748L361.282 517.545H363.249L360.969 520.344H360.511L359.499 521.569ZM357.933 523V515.727H359.67V523H357.933ZM361.321 523L359.893 520.734L361.037 519.502L363.327 523H361.321ZM368.789 523.099C368.259 523.099 367.788 523.004 367.376 522.812C366.964 522.62 366.638 522.356 366.399 522.02C366.162 521.684 366.039 521.298 366.03 520.862H367.734C367.749 521.13 367.857 521.345 368.061 521.509C368.265 521.67 368.507 521.75 368.789 521.75C369.009 521.75 369.205 521.701 369.375 521.604C369.545 521.507 369.679 521.371 369.776 521.196C369.873 521.018 369.921 520.815 369.918 520.585C369.921 520.351 369.872 520.146 369.773 519.971C369.676 519.796 369.541 519.66 369.368 519.562C369.197 519.463 369.001 519.413 368.778 519.413C368.568 519.411 368.368 519.457 368.178 519.552C367.991 519.647 367.849 519.776 367.752 519.939L366.2 519.648L366.516 515.727H371.183V517.144H367.962L367.795 518.859H367.837C367.958 518.658 368.152 518.492 368.42 518.362C368.69 518.23 368.996 518.163 369.339 518.163C369.775 518.163 370.163 518.265 370.504 518.469C370.848 518.67 371.117 518.949 371.314 519.307C371.513 519.664 371.612 520.074 371.612 520.536C371.612 521.035 371.494 521.478 371.257 521.864C371.023 522.25 370.694 522.553 370.27 522.773C369.848 522.991 369.355 523.099 368.789 523.099Z"
    fill="white"/>
  <circle cx="348" cy="619" r="25" fill="#008D06"/>
  <path
    d="M335.482 617.908C335.458 617.647 335.353 617.445 335.165 617.3C334.981 617.154 334.717 617.08 334.374 617.08C334.146 617.08 333.957 617.11 333.805 617.169C333.654 617.228 333.54 617.31 333.464 617.414C333.389 617.516 333.35 617.633 333.347 617.766C333.343 617.875 333.364 617.97 333.411 618.053C333.461 618.136 333.532 618.21 333.624 618.273C333.719 618.335 333.833 618.389 333.965 618.437C334.098 618.484 334.247 618.526 334.413 618.561L335.038 618.703C335.397 618.781 335.715 618.885 335.989 619.016C336.266 619.146 336.498 619.301 336.685 619.481C336.875 619.661 337.018 619.868 337.115 620.102C337.212 620.337 337.262 620.599 337.264 620.891C337.262 621.35 337.146 621.744 336.916 622.073C336.687 622.402 336.356 622.654 335.925 622.83C335.497 623.005 334.98 623.092 334.374 623.092C333.765 623.092 333.235 623.001 332.783 622.819C332.33 622.637 331.979 622.36 331.728 621.988C331.477 621.616 331.348 621.146 331.341 620.578H333.024C333.038 620.812 333.101 621.008 333.212 621.164C333.324 621.32 333.476 621.439 333.67 621.519C333.867 621.6 334.094 621.64 334.352 621.64C334.589 621.64 334.79 621.608 334.956 621.544C335.124 621.48 335.253 621.391 335.343 621.278C335.433 621.164 335.479 621.034 335.482 620.887C335.479 620.75 335.437 620.633 335.354 620.536C335.271 620.436 335.143 620.351 334.97 620.28C334.8 620.206 334.582 620.139 334.317 620.077L333.557 619.9C332.927 619.755 332.431 619.522 332.069 619.2C331.707 618.876 331.527 618.438 331.529 617.886C331.527 617.437 331.647 617.042 331.891 616.704C332.135 616.365 332.473 616.101 332.903 615.912C333.334 615.723 333.826 615.628 334.377 615.628C334.941 615.628 335.429 615.724 335.844 615.915C336.26 616.105 336.584 616.371 336.813 616.714C337.043 617.058 337.16 617.455 337.165 617.908H335.482ZM341.231 617.545V618.824H337.79V617.545H341.231ZM338.511 616.239H340.247V621.285C340.247 621.391 340.264 621.478 340.297 621.544C340.332 621.608 340.383 621.654 340.45 621.683C340.516 621.709 340.595 621.722 340.688 621.722C340.754 621.722 340.824 621.716 340.897 621.704C340.973 621.69 341.03 621.678 341.067 621.668L341.33 622.922C341.247 622.946 341.13 622.975 340.979 623.011C340.83 623.046 340.651 623.069 340.442 623.078C340.035 623.097 339.686 623.05 339.395 622.936C339.106 622.82 338.885 622.64 338.731 622.396C338.579 622.152 338.506 621.846 338.511 621.477V616.239ZM344.604 623.103C344.031 623.103 343.539 622.986 343.127 622.751C342.718 622.515 342.402 622.186 342.179 621.764C341.959 621.34 341.849 620.849 341.849 620.29C341.849 619.729 341.959 619.238 342.179 618.817C342.402 618.393 342.718 618.064 343.127 617.83C343.539 617.593 344.031 617.474 344.604 617.474C345.177 617.474 345.669 617.593 346.078 617.83C346.49 618.064 346.806 618.393 347.026 618.817C347.249 619.238 347.36 619.729 347.36 620.29C347.36 620.849 347.249 621.34 347.026 621.764C346.806 622.186 346.49 622.515 346.078 622.751C345.669 622.986 345.177 623.103 344.604 623.103ZM344.615 621.793C344.823 621.793 345 621.729 345.144 621.601C345.289 621.473 345.399 621.295 345.474 621.068C345.553 620.841 345.592 620.578 345.592 620.28C345.592 619.977 345.553 619.712 345.474 619.484C345.399 619.257 345.289 619.08 345.144 618.952C345 618.824 344.823 618.76 344.615 618.76C344.4 618.76 344.217 618.824 344.068 618.952C343.921 619.08 343.809 619.257 343.731 619.484C343.655 619.712 343.617 619.977 343.617 620.28C343.617 620.578 343.655 620.841 343.731 621.068C343.809 621.295 343.921 621.473 344.068 621.601C344.217 621.729 344.4 621.793 344.615 621.793ZM349.986 615.727V623H348.25V615.727H349.986ZM351.091 623V617.545H352.828V623H351.091ZM351.961 616.91C351.718 616.91 351.508 616.829 351.333 616.668C351.158 616.505 351.07 616.308 351.07 616.079C351.07 615.852 351.158 615.657 351.333 615.496C351.508 615.333 351.718 615.251 351.961 615.251C352.208 615.251 352.417 615.333 352.59 615.496C352.765 615.657 352.853 615.852 352.853 616.079C352.853 616.308 352.765 616.505 352.59 616.668C352.417 616.829 352.208 616.91 351.961 616.91ZM355.499 621.569L355.506 619.499H355.748L357.282 617.545H359.249L356.969 620.344H356.511L355.499 621.569ZM353.933 623V615.727H355.67V623H353.933ZM357.321 623L355.893 620.734L357.037 619.502L359.327 623H357.321ZM364.92 623.099C364.523 623.099 364.142 623.036 363.777 622.908C363.412 622.777 363.088 622.571 362.804 622.29C362.52 622.006 362.296 621.634 362.133 621.175C361.969 620.713 361.889 620.151 361.891 619.488C361.894 618.889 361.967 618.352 362.112 617.876C362.256 617.397 362.462 616.991 362.729 616.658C362.999 616.324 363.321 616.069 363.695 615.894C364.072 615.717 364.492 615.628 364.956 615.628C365.465 615.628 365.914 615.727 366.302 615.926C366.692 616.123 367.005 616.388 367.239 616.722C367.474 617.053 367.612 617.422 367.655 617.83H365.925C365.873 617.6 365.759 617.426 365.581 617.308C365.406 617.187 365.197 617.126 364.956 617.126C364.511 617.126 364.178 617.319 363.958 617.705C363.74 618.091 363.629 618.607 363.624 619.254H363.67C363.77 619.036 363.913 618.849 364.1 618.692C364.287 618.536 364.501 618.417 364.743 618.334C364.987 618.249 365.245 618.206 365.517 618.206C365.953 618.206 366.337 618.307 366.671 618.508C367.005 618.709 367.267 618.985 367.456 619.335C367.645 619.683 367.739 620.082 367.737 620.532C367.739 621.039 367.621 621.486 367.381 621.874C367.142 622.26 366.811 622.561 366.387 622.776C365.966 622.992 365.477 623.099 364.92 623.099ZM364.91 621.75C365.125 621.75 365.318 621.699 365.489 621.597C365.659 621.496 365.793 621.357 365.89 621.182C365.987 621.007 366.034 620.809 366.032 620.589C366.034 620.366 365.987 620.169 365.89 619.996C365.795 619.823 365.663 619.686 365.492 619.584C365.324 619.482 365.131 619.431 364.913 619.431C364.755 619.431 364.607 619.461 364.469 619.52C364.332 619.579 364.213 619.662 364.111 619.768C364.011 619.873 363.933 619.996 363.876 620.138C363.82 620.277 363.79 620.429 363.788 620.592C363.79 620.808 363.84 621.003 363.937 621.178C364.034 621.353 364.166 621.493 364.335 621.597C364.503 621.699 364.694 621.75 364.91 621.75Z"
    fill="white"/>
  <circle cx="348" cy="734" r="25" fill="#008D06"/>
  <path
    d="M335.482 732.908C335.458 732.647 335.353 732.445 335.165 732.3C334.981 732.154 334.717 732.08 334.374 732.08C334.146 732.08 333.957 732.11 333.805 732.169C333.654 732.228 333.54 732.31 333.464 732.414C333.389 732.516 333.35 732.633 333.347 732.766C333.343 732.875 333.364 732.97 333.411 733.053C333.461 733.136 333.532 733.21 333.624 733.273C333.719 733.335 333.833 733.389 333.965 733.437C334.098 733.484 334.247 733.526 334.413 733.561L335.038 733.703C335.397 733.781 335.715 733.885 335.989 734.016C336.266 734.146 336.498 734.301 336.685 734.481C336.875 734.661 337.018 734.868 337.115 735.102C337.212 735.337 337.262 735.599 337.264 735.891C337.262 736.35 337.146 736.744 336.916 737.073C336.687 737.402 336.356 737.654 335.925 737.83C335.497 738.005 334.98 738.092 334.374 738.092C333.765 738.092 333.235 738.001 332.783 737.819C332.33 737.637 331.979 737.36 331.728 736.988C331.477 736.616 331.348 736.146 331.341 735.578H333.024C333.038 735.812 333.101 736.008 333.212 736.164C333.324 736.32 333.476 736.439 333.67 736.519C333.867 736.6 334.094 736.64 334.352 736.64C334.589 736.64 334.79 736.608 334.956 736.544C335.124 736.48 335.253 736.391 335.343 736.278C335.433 736.164 335.479 736.034 335.482 735.887C335.479 735.75 335.437 735.633 335.354 735.536C335.271 735.436 335.143 735.351 334.97 735.28C334.8 735.206 334.582 735.139 334.317 735.077L333.557 734.9C332.927 734.755 332.431 734.522 332.069 734.2C331.707 733.876 331.527 733.438 331.529 732.886C331.527 732.437 331.647 732.042 331.891 731.704C332.135 731.365 332.473 731.101 332.903 730.912C333.334 730.723 333.826 730.628 334.377 730.628C334.941 730.628 335.429 730.724 335.844 730.915C336.26 731.105 336.584 731.371 336.813 731.714C337.043 732.058 337.16 732.455 337.165 732.908H335.482ZM341.231 732.545V733.824H337.79V732.545H341.231ZM338.511 731.239H340.247V736.285C340.247 736.391 340.264 736.478 340.297 736.544C340.332 736.608 340.383 736.654 340.45 736.683C340.516 736.709 340.595 736.722 340.688 736.722C340.754 736.722 340.824 736.716 340.897 736.704C340.973 736.69 341.03 736.678 341.067 736.668L341.33 737.922C341.247 737.946 341.13 737.975 340.979 738.011C340.83 738.046 340.651 738.069 340.442 738.078C340.035 738.097 339.686 738.05 339.395 737.936C339.106 737.82 338.885 737.64 338.731 737.396C338.579 737.152 338.506 736.846 338.511 736.477V731.239ZM344.604 738.103C344.031 738.103 343.539 737.986 343.127 737.751C342.718 737.515 342.402 737.186 342.179 736.764C341.959 736.34 341.849 735.849 341.849 735.29C341.849 734.729 341.959 734.238 342.179 733.817C342.402 733.393 342.718 733.064 343.127 732.83C343.539 732.593 344.031 732.474 344.604 732.474C345.177 732.474 345.669 732.593 346.078 732.83C346.49 733.064 346.806 733.393 347.026 733.817C347.249 734.238 347.36 734.729 347.36 735.29C347.36 735.849 347.249 736.34 347.026 736.764C346.806 737.186 346.49 737.515 346.078 737.751C345.669 737.986 345.177 738.103 344.604 738.103ZM344.615 736.793C344.823 736.793 345 736.729 345.144 736.601C345.289 736.473 345.399 736.295 345.474 736.068C345.553 735.841 345.592 735.578 345.592 735.28C345.592 734.977 345.553 734.712 345.474 734.484C345.399 734.257 345.289 734.08 345.144 733.952C345 733.824 344.823 733.76 344.615 733.76C344.4 733.76 344.217 733.824 344.068 733.952C343.921 734.08 343.809 734.257 343.731 734.484C343.655 734.712 343.617 734.977 343.617 735.28C343.617 735.578 343.655 735.841 343.731 736.068C343.809 736.295 343.921 736.473 344.068 736.601C344.217 736.729 344.4 736.793 344.615 736.793ZM349.986 730.727V738H348.25V730.727H349.986ZM351.091 738V732.545H352.828V738H351.091ZM351.961 731.91C351.718 731.91 351.508 731.829 351.333 731.668C351.158 731.505 351.07 731.308 351.07 731.079C351.07 730.852 351.158 730.657 351.333 730.496C351.508 730.333 351.718 730.251 351.961 730.251C352.208 730.251 352.417 730.333 352.59 730.496C352.765 730.657 352.853 730.852 352.853 731.079C352.853 731.308 352.765 731.505 352.59 731.668C352.417 731.829 352.208 731.91 351.961 731.91ZM355.499 736.569L355.506 734.499H355.748L357.282 732.545H359.249L356.969 735.344H356.511L355.499 736.569ZM353.933 738V730.727H355.67V738H353.933ZM357.321 738L355.893 735.734L357.037 734.502L359.327 738H357.321ZM362.314 738L365.247 732.19V732.144H361.817V730.727H367.065V732.155L364.121 738H362.314Z"
    fill="white"/>
  <circle cx="230" cy="677" r="25" fill="#008D06"/>
  <path
    d="M217.482 673.908C217.458 673.647 217.353 673.445 217.165 673.3C216.981 673.154 216.717 673.08 216.374 673.08C216.146 673.08 215.957 673.11 215.805 673.169C215.654 673.228 215.54 673.31 215.464 673.414C215.389 673.516 215.35 673.633 215.347 673.766C215.343 673.875 215.364 673.97 215.411 674.053C215.461 674.136 215.532 674.21 215.624 674.273C215.719 674.335 215.833 674.389 215.965 674.437C216.098 674.484 216.247 674.526 216.413 674.561L217.038 674.703C217.397 674.781 217.715 674.885 217.989 675.016C218.266 675.146 218.498 675.301 218.685 675.481C218.875 675.661 219.018 675.868 219.115 676.102C219.212 676.337 219.262 676.599 219.264 676.891C219.262 677.35 219.146 677.744 218.916 678.073C218.687 678.402 218.356 678.654 217.925 678.83C217.497 679.005 216.98 679.092 216.374 679.092C215.765 679.092 215.235 679.001 214.783 678.819C214.33 678.637 213.979 678.36 213.728 677.988C213.477 677.616 213.348 677.146 213.341 676.578H215.024C215.038 676.812 215.101 677.008 215.212 677.164C215.324 677.32 215.476 677.439 215.67 677.519C215.867 677.6 216.094 677.64 216.352 677.64C216.589 677.64 216.79 677.608 216.956 677.544C217.124 677.48 217.253 677.391 217.343 677.278C217.433 677.164 217.479 677.034 217.482 676.887C217.479 676.75 217.437 676.633 217.354 676.536C217.271 676.436 217.143 676.351 216.97 676.28C216.8 676.206 216.582 676.139 216.317 676.077L215.557 675.9C214.927 675.755 214.431 675.522 214.069 675.2C213.707 674.876 213.527 674.438 213.529 673.886C213.527 673.437 213.647 673.042 213.891 672.704C214.135 672.365 214.473 672.101 214.903 671.912C215.334 671.723 215.826 671.628 216.377 671.628C216.941 671.628 217.429 671.724 217.844 671.915C218.26 672.105 218.584 672.371 218.813 672.714C219.043 673.058 219.16 673.455 219.165 673.908H217.482ZM223.231 673.545V674.824H219.79V673.545H223.231ZM220.511 672.239H222.247V677.285C222.247 677.391 222.264 677.478 222.297 677.544C222.332 677.608 222.383 677.654 222.45 677.683C222.516 677.709 222.595 677.722 222.688 677.722C222.754 677.722 222.824 677.716 222.897 677.704C222.973 677.69 223.03 677.678 223.067 677.668L223.33 678.922C223.247 678.946 223.13 678.975 222.979 679.011C222.83 679.046 222.651 679.069 222.442 679.078C222.035 679.097 221.686 679.05 221.395 678.936C221.106 678.82 220.885 678.64 220.731 678.396C220.579 678.152 220.506 677.846 220.511 677.477V672.239ZM226.604 679.103C226.031 679.103 225.539 678.986 225.127 678.751C224.718 678.515 224.402 678.186 224.179 677.764C223.959 677.34 223.849 676.849 223.849 676.29C223.849 675.729 223.959 675.238 224.179 674.817C224.402 674.393 224.718 674.064 225.127 673.83C225.539 673.593 226.031 673.474 226.604 673.474C227.177 673.474 227.669 673.593 228.078 673.83C228.49 674.064 228.806 674.393 229.026 674.817C229.249 675.238 229.36 675.729 229.36 676.29C229.36 676.849 229.249 677.34 229.026 677.764C228.806 678.186 228.49 678.515 228.078 678.751C227.669 678.986 227.177 679.103 226.604 679.103ZM226.615 677.793C226.823 677.793 227 677.729 227.144 677.601C227.289 677.473 227.399 677.295 227.474 677.068C227.553 676.841 227.592 676.578 227.592 676.28C227.592 675.977 227.553 675.712 227.474 675.484C227.399 675.257 227.289 675.08 227.144 674.952C227 674.824 226.823 674.76 226.615 674.76C226.4 674.76 226.217 674.824 226.068 674.952C225.921 675.08 225.809 675.257 225.731 675.484C225.655 675.712 225.617 675.977 225.617 676.28C225.617 676.578 225.655 676.841 225.731 677.068C225.809 677.295 225.921 677.473 226.068 677.601C226.217 677.729 226.4 677.793 226.615 677.793ZM231.986 671.727V679H230.25V671.727H231.986ZM233.091 679V673.545H234.828V679H233.091ZM233.961 672.91C233.718 672.91 233.508 672.829 233.333 672.668C233.158 672.505 233.07 672.308 233.07 672.079C233.07 671.852 233.158 671.657 233.333 671.496C233.508 671.333 233.718 671.251 233.961 671.251C234.208 671.251 234.417 671.333 234.59 671.496C234.765 671.657 234.853 671.852 234.853 672.079C234.853 672.308 234.765 672.505 234.59 672.668C234.417 672.829 234.208 672.91 233.961 672.91ZM237.499 677.569L237.506 675.499H237.748L239.282 673.545H241.249L238.969 676.344H238.511L237.499 677.569ZM235.933 679V671.727H237.67V679H235.933ZM239.321 679L237.893 676.734L239.037 675.502L241.327 679H239.321ZM246.743 671.628C247.141 671.628 247.521 671.693 247.883 671.823C248.245 671.951 248.568 672.156 248.852 672.438C249.136 672.717 249.36 673.085 249.523 673.542C249.687 673.999 249.768 674.556 249.768 675.214C249.771 675.821 249.7 676.364 249.555 676.844C249.411 677.323 249.204 677.73 248.934 678.066C248.666 678.402 248.344 678.659 247.968 678.837C247.592 679.012 247.171 679.099 246.707 679.099C246.196 679.099 245.745 679.001 245.354 678.805C244.966 678.606 244.655 678.338 244.42 678.002C244.188 677.666 244.05 677.29 244.005 676.873H245.734C245.789 677.114 245.904 677.297 246.079 677.42C246.254 677.54 246.464 677.601 246.707 677.601C247.152 677.601 247.485 677.408 247.705 677.022C247.925 676.636 248.036 676.112 248.036 675.449H247.993C247.891 675.667 247.747 675.854 247.56 676.01C247.375 676.166 247.161 676.286 246.917 676.369C246.673 676.451 246.416 676.493 246.146 676.493C245.711 676.493 245.326 676.393 244.992 676.195C244.661 675.996 244.4 675.722 244.211 675.374C244.024 675.026 243.929 674.629 243.927 674.181C243.924 673.679 244.042 673.237 244.278 672.853C244.515 672.467 244.845 672.166 245.269 671.951C245.693 671.733 246.184 671.625 246.743 671.628ZM246.754 672.977C246.536 672.977 246.342 673.028 246.171 673.13C246.003 673.232 245.871 673.369 245.773 673.542C245.676 673.715 245.629 673.909 245.631 674.124C245.634 674.34 245.682 674.534 245.777 674.707C245.874 674.879 246.005 675.017 246.171 675.119C246.339 675.22 246.531 675.271 246.746 675.271C246.907 675.271 247.057 675.242 247.194 675.183C247.331 675.123 247.451 675.042 247.553 674.938C247.654 674.831 247.734 674.708 247.79 674.568C247.85 674.429 247.878 674.279 247.876 674.121C247.873 673.91 247.824 673.718 247.727 673.545C247.629 673.373 247.496 673.235 247.325 673.134C247.157 673.029 246.967 672.977 246.754 672.977Z"
    fill="white"/>
  <circle cx="184" cy="784" r="25" fill="#008D06"/>
  <path
    d="M167.482 782.908C167.458 782.647 167.353 782.445 167.165 782.3C166.981 782.154 166.717 782.08 166.374 782.08C166.146 782.08 165.957 782.11 165.805 782.169C165.654 782.228 165.54 782.31 165.464 782.414C165.389 782.516 165.35 782.633 165.347 782.766C165.343 782.875 165.364 782.97 165.411 783.053C165.461 783.136 165.532 783.21 165.624 783.273C165.719 783.335 165.833 783.389 165.965 783.437C166.098 783.484 166.247 783.526 166.413 783.561L167.038 783.703C167.397 783.781 167.715 783.885 167.989 784.016C168.266 784.146 168.498 784.301 168.685 784.481C168.875 784.661 169.018 784.868 169.115 785.102C169.212 785.337 169.262 785.599 169.264 785.891C169.262 786.35 169.146 786.744 168.916 787.073C168.687 787.402 168.356 787.654 167.925 787.83C167.497 788.005 166.98 788.092 166.374 788.092C165.765 788.092 165.235 788.001 164.783 787.819C164.33 787.637 163.979 787.36 163.728 786.988C163.477 786.616 163.348 786.146 163.341 785.578H165.024C165.038 785.812 165.101 786.008 165.212 786.164C165.324 786.32 165.476 786.439 165.67 786.519C165.867 786.6 166.094 786.64 166.352 786.64C166.589 786.64 166.79 786.608 166.956 786.544C167.124 786.48 167.253 786.391 167.343 786.278C167.433 786.164 167.479 786.034 167.482 785.887C167.479 785.75 167.437 785.633 167.354 785.536C167.271 785.436 167.143 785.351 166.97 785.28C166.8 785.206 166.582 785.139 166.317 785.077L165.557 784.9C164.927 784.755 164.431 784.522 164.069 784.2C163.707 783.876 163.527 783.438 163.529 782.886C163.527 782.437 163.647 782.042 163.891 781.704C164.135 781.365 164.473 781.101 164.903 780.912C165.334 780.723 165.826 780.628 166.377 780.628C166.941 780.628 167.429 780.724 167.844 780.915C168.26 781.105 168.584 781.371 168.813 781.714C169.043 782.058 169.16 782.455 169.165 782.908H167.482ZM173.231 782.545V783.824H169.79V782.545H173.231ZM170.511 781.239H172.247V786.285C172.247 786.391 172.264 786.478 172.297 786.544C172.332 786.608 172.383 786.654 172.45 786.683C172.516 786.709 172.595 786.722 172.688 786.722C172.754 786.722 172.824 786.716 172.897 786.704C172.973 786.69 173.03 786.678 173.067 786.668L173.33 787.922C173.247 787.946 173.13 787.975 172.979 788.011C172.83 788.046 172.651 788.069 172.442 788.078C172.035 788.097 171.686 788.05 171.395 787.936C171.106 787.82 170.885 787.64 170.731 787.396C170.579 787.152 170.506 786.846 170.511 786.477V781.239ZM176.604 788.103C176.031 788.103 175.539 787.986 175.127 787.751C174.718 787.515 174.402 787.186 174.179 786.764C173.959 786.34 173.849 785.849 173.849 785.29C173.849 784.729 173.959 784.238 174.179 783.817C174.402 783.393 174.718 783.064 175.127 782.83C175.539 782.593 176.031 782.474 176.604 782.474C177.177 782.474 177.669 782.593 178.078 782.83C178.49 783.064 178.806 783.393 179.026 783.817C179.249 784.238 179.36 784.729 179.36 785.29C179.36 785.849 179.249 786.34 179.026 786.764C178.806 787.186 178.49 787.515 178.078 787.751C177.669 787.986 177.177 788.103 176.604 788.103ZM176.615 786.793C176.823 786.793 177 786.729 177.144 786.601C177.289 786.473 177.399 786.295 177.474 786.068C177.553 785.841 177.592 785.578 177.592 785.28C177.592 784.977 177.553 784.712 177.474 784.484C177.399 784.257 177.289 784.08 177.144 783.952C177 783.824 176.823 783.76 176.615 783.76C176.4 783.76 176.217 783.824 176.068 783.952C175.921 784.08 175.809 784.257 175.731 784.484C175.655 784.712 175.617 784.977 175.617 785.28C175.617 785.578 175.655 785.841 175.731 786.068C175.809 786.295 175.921 786.473 176.068 786.601C176.217 786.729 176.4 786.793 176.615 786.793ZM181.986 780.727V788H180.25V780.727H181.986ZM183.091 788V782.545H184.828V788H183.091ZM183.961 781.91C183.718 781.91 183.508 781.829 183.333 781.668C183.158 781.505 183.07 781.308 183.07 781.079C183.07 780.852 183.158 780.657 183.333 780.496C183.508 780.333 183.718 780.251 183.961 780.251C184.208 780.251 184.417 780.333 184.59 780.496C184.765 780.657 184.853 780.852 184.853 781.079C184.853 781.308 184.765 781.505 184.59 781.668C184.417 781.829 184.208 781.91 183.961 781.91ZM187.499 786.569L187.506 784.499H187.748L189.282 782.545H191.249L188.969 785.344H188.511L187.499 786.569ZM185.933 788V780.727H187.67V788H185.933ZM189.321 788L187.893 785.734L189.037 784.502L191.327 788H189.321ZM197.368 780.727V788H195.614V782.368H195.571L193.945 783.362V781.842L195.738 780.727H197.368ZM202.339 780.727V788H200.584V782.368H200.542L198.915 783.362V781.842L200.709 780.727H202.339Z"
    fill="white"/>
  <circle cx="49" cy="834" r="25" fill="#008D06"/>
  <path
    d="M32.4815 832.908C32.4579 832.647 32.3525 832.445 32.1655 832.3C31.9808 832.154 31.7169 832.08 31.3736 832.08C31.1463 832.08 30.9569 832.11 30.8054 832.169C30.6539 832.228 30.5402 832.31 30.4645 832.414C30.3887 832.516 30.3497 832.633 30.3473 832.766C30.3426 832.875 30.3639 832.97 30.4112 833.053C30.4609 833.136 30.532 833.21 30.6243 833.273C30.719 833.335 30.8326 833.389 30.9652 833.437C31.0978 833.484 31.2469 833.526 31.4126 833.561L32.0376 833.703C32.3975 833.781 32.7147 833.885 32.9893 834.016C33.2663 834.146 33.4983 834.301 33.6854 834.481C33.8748 834.661 34.018 834.868 34.1151 835.102C34.2121 835.337 34.2618 835.599 34.2642 835.891C34.2618 836.35 34.1458 836.744 33.9162 837.073C33.6866 837.402 33.3563 837.654 32.9254 837.83C32.4969 838.005 31.9796 838.092 31.3736 838.092C30.7652 838.092 30.2348 838.001 29.7827 837.819C29.3305 837.637 28.9789 837.36 28.728 836.988C28.477 836.616 28.348 836.146 28.3409 835.578H30.0241C30.0384 835.812 30.1011 836.008 30.2124 836.164C30.3236 836.32 30.4763 836.439 30.6705 836.519C30.867 836.6 31.0942 836.64 31.3523 836.64C31.589 836.64 31.7902 836.608 31.956 836.544C32.1241 836.48 32.2531 836.391 32.343 836.278C32.433 836.164 32.4792 836.034 32.4815 835.887C32.4792 835.75 32.4366 835.633 32.3537 835.536C32.2708 835.436 32.143 835.351 31.9702 835.28C31.7997 835.206 31.5819 835.139 31.3168 835.077L30.5568 834.9C29.9271 834.755 29.4311 834.522 29.0689 834.2C28.7067 833.876 28.5268 833.438 28.5291 832.886C28.5268 832.437 28.6475 832.042 28.8913 831.704C29.1352 831.365 29.4725 831.101 29.9034 830.912C30.3343 830.723 30.8255 830.628 31.3771 830.628C31.9406 830.628 32.4295 830.724 32.8438 830.915C33.2604 831.105 33.5836 831.371 33.8132 831.714C34.0429 832.058 34.16 832.455 34.1648 832.908H32.4815ZM38.2308 832.545V833.824H34.7898V832.545H38.2308ZM35.5107 831.239H37.2472V836.285C37.2472 836.391 37.2637 836.478 37.2969 836.544C37.3324 836.608 37.3833 836.654 37.4496 836.683C37.5159 836.709 37.5952 836.722 37.6875 836.722C37.7538 836.722 37.8236 836.716 37.897 836.704C37.9728 836.69 38.0296 836.678 38.0675 836.668L38.3303 837.922C38.2474 837.946 38.1302 837.975 37.9787 838.011C37.8295 838.046 37.6508 838.069 37.4425 838.078C37.0353 838.097 36.6861 838.05 36.3949 837.936C36.1061 837.82 35.8847 837.64 35.7308 837.396C35.5793 837.152 35.5059 836.846 35.5107 836.477V831.239ZM41.6044 838.103C41.0315 838.103 40.5391 837.986 40.1271 837.751C39.7176 837.515 39.4015 837.186 39.179 836.764C38.9588 836.34 38.8487 835.849 38.8487 835.29C38.8487 834.729 38.9588 834.238 39.179 833.817C39.4015 833.393 39.7176 833.064 40.1271 832.83C40.5391 832.593 41.0315 832.474 41.6044 832.474C42.1773 832.474 42.6686 832.593 43.0781 832.83C43.4901 833.064 43.8061 833.393 44.0263 833.817C44.2488 834.238 44.3601 834.729 44.3601 835.29C44.3601 835.849 44.2488 836.34 44.0263 836.764C43.8061 837.186 43.4901 837.515 43.0781 837.751C42.6686 837.986 42.1773 838.103 41.6044 838.103ZM41.6151 836.793C41.8234 836.793 41.9998 836.729 42.1442 836.601C42.2886 836.473 42.3987 836.295 42.4744 836.068C42.5526 835.841 42.5916 835.578 42.5916 835.28C42.5916 834.977 42.5526 834.712 42.4744 834.484C42.3987 834.257 42.2886 834.08 42.1442 833.952C41.9998 833.824 41.8234 833.76 41.6151 833.76C41.3996 833.76 41.2173 833.824 41.0682 833.952C40.9214 834.08 40.8089 834.257 40.7308 834.484C40.6551 834.712 40.6172 834.977 40.6172 835.28C40.6172 835.578 40.6551 835.841 40.7308 836.068C40.8089 836.295 40.9214 836.473 41.0682 836.601C41.2173 836.729 41.3996 836.793 41.6151 836.793ZM46.9862 830.727V838H45.2496V830.727H46.9862ZM48.0914 838V832.545H49.8279V838H48.0914ZM48.9615 831.91C48.7176 831.91 48.5081 831.829 48.3329 831.668C48.1577 831.505 48.0701 831.308 48.0701 831.079C48.0701 830.852 48.1577 830.657 48.3329 830.496C48.5081 830.333 48.7176 830.251 48.9615 830.251C49.2077 830.251 49.4172 830.333 49.59 830.496C49.7652 830.657 49.8528 830.852 49.8528 831.079C49.8528 831.308 49.7652 831.505 49.59 831.668C49.4172 831.829 49.2077 831.91 48.9615 831.91ZM52.4993 836.569L52.5064 834.499H52.7479L54.282 832.545H56.2493L53.9695 835.344H53.5114L52.4993 836.569ZM50.9332 838V830.727H52.6697V838H50.9332ZM54.321 838L52.8935 835.734L54.0369 834.502L56.3274 838H54.321ZM62.3679 830.727V838H60.6136V832.368H60.571L58.9446 833.362V831.842L60.7379 830.727H62.3679ZM66.742 838.099C66.188 838.099 65.6968 838.005 65.2683 837.815C64.8422 837.624 64.506 837.36 64.2598 837.023C64.0136 836.687 63.8881 836.3 63.8833 835.862H65.6518C65.6589 836.021 65.7098 836.162 65.8045 836.285C65.8992 836.406 66.0282 836.5 66.1916 836.569C66.3549 836.638 66.5408 836.672 66.7491 836.672C66.9574 836.672 67.1409 836.635 67.2995 836.562C67.4605 836.486 67.586 836.383 67.676 836.253C67.7659 836.12 67.8097 835.969 67.8074 835.798C67.8097 835.628 67.7612 835.476 67.6618 835.344C67.5623 835.211 67.4215 835.108 67.2392 835.035C67.0592 834.961 66.8462 834.925 66.6 834.925H65.8933V833.675H66.6C66.8154 833.675 67.0048 833.639 67.1681 833.568C67.3339 833.497 67.4629 833.398 67.5552 833.27C67.6475 833.14 67.6925 832.991 67.6902 832.822C67.6925 832.659 67.6535 832.516 67.573 832.393C67.4949 832.267 67.3848 832.17 67.2427 832.102C67.103 832.033 66.9409 831.999 66.7562 831.999C66.5621 831.999 66.3857 832.033 66.2271 832.102C66.0708 832.17 65.9466 832.267 65.8542 832.393C65.7619 832.518 65.7134 832.664 65.7086 832.83H64.0289C64.0337 832.396 64.1544 832.015 64.3912 831.686C64.6279 831.355 64.9499 831.095 65.3571 830.908C65.7666 830.721 66.233 830.628 66.7562 830.628C67.277 830.628 67.7351 830.719 68.1305 830.901C68.5259 831.084 68.8336 831.332 69.0538 831.647C69.274 831.96 69.3841 832.313 69.3841 832.709C69.3864 833.118 69.2527 833.456 68.9828 833.721C68.7153 833.986 68.3708 834.149 67.9494 834.211V834.268C68.5128 834.334 68.9378 834.516 69.2243 834.815C69.5131 835.113 69.6563 835.486 69.6539 835.933C69.6539 836.355 69.5297 836.729 69.2811 837.055C69.0349 837.38 68.6916 837.635 68.2512 837.822C67.8133 838.007 67.3102 838.099 66.742 838.099Z"
    fill="white"/>
  <circle cx="74" cy="702" r="25" fill="#008D06"/>
  <path
    d="M57.4815 700.908C57.4579 700.647 57.3525 700.445 57.1655 700.3C56.9808 700.154 56.7169 700.08 56.3736 700.08C56.1463 700.08 55.9569 700.11 55.8054 700.169C55.6539 700.228 55.5402 700.31 55.4645 700.414C55.3887 700.516 55.3497 700.633 55.3473 700.766C55.3426 700.875 55.3639 700.97 55.4112 701.053C55.4609 701.136 55.532 701.21 55.6243 701.273C55.719 701.335 55.8326 701.389 55.9652 701.437C56.0978 701.484 56.2469 701.526 56.4126 701.561L57.0376 701.703C57.3975 701.781 57.7147 701.885 57.9893 702.016C58.2663 702.146 58.4983 702.301 58.6854 702.481C58.8748 702.661 59.018 702.868 59.1151 703.102C59.2121 703.337 59.2618 703.599 59.2642 703.891C59.2618 704.35 59.1458 704.744 58.9162 705.073C58.6866 705.402 58.3563 705.654 57.9254 705.83C57.4969 706.005 56.9796 706.092 56.3736 706.092C55.7652 706.092 55.2348 706.001 54.7827 705.819C54.3305 705.637 53.9789 705.36 53.728 704.988C53.477 704.616 53.348 704.146 53.3409 703.578H55.0241C55.0384 703.812 55.1011 704.008 55.2124 704.164C55.3236 704.32 55.4763 704.439 55.6705 704.519C55.867 704.6 56.0942 704.64 56.3523 704.64C56.589 704.64 56.7902 704.608 56.956 704.544C57.1241 704.48 57.2531 704.391 57.343 704.278C57.433 704.164 57.4792 704.034 57.4815 703.887C57.4792 703.75 57.4366 703.633 57.3537 703.536C57.2708 703.436 57.143 703.351 56.9702 703.28C56.7997 703.206 56.5819 703.139 56.3168 703.077L55.5568 702.9C54.9271 702.755 54.4311 702.522 54.0689 702.2C53.7067 701.876 53.5268 701.438 53.5291 700.886C53.5268 700.437 53.6475 700.042 53.8913 699.704C54.1352 699.365 54.4725 699.101 54.9034 698.912C55.3343 698.723 55.8255 698.628 56.3771 698.628C56.9406 698.628 57.4295 698.724 57.8438 698.915C58.2604 699.105 58.5836 699.371 58.8132 699.714C59.0429 700.058 59.16 700.455 59.1648 700.908H57.4815ZM63.2308 700.545V701.824H59.7898V700.545H63.2308ZM60.5107 699.239H62.2472V704.285C62.2472 704.391 62.2637 704.478 62.2969 704.544C62.3324 704.608 62.3833 704.654 62.4496 704.683C62.5159 704.709 62.5952 704.722 62.6875 704.722C62.7538 704.722 62.8236 704.716 62.897 704.704C62.9728 704.69 63.0296 704.678 63.0675 704.668L63.3303 705.922C63.2474 705.946 63.1302 705.975 62.9787 706.011C62.8295 706.046 62.6508 706.069 62.4425 706.078C62.0353 706.097 61.6861 706.05 61.3949 705.936C61.1061 705.82 60.8847 705.64 60.7308 705.396C60.5793 705.152 60.5059 704.846 60.5107 704.477V699.239ZM66.6044 706.103C66.0315 706.103 65.5391 705.986 65.1271 705.751C64.7176 705.515 64.4015 705.186 64.179 704.764C63.9588 704.34 63.8487 703.849 63.8487 703.29C63.8487 702.729 63.9588 702.238 64.179 701.817C64.4015 701.393 64.7176 701.064 65.1271 700.83C65.5391 700.593 66.0315 700.474 66.6044 700.474C67.1773 700.474 67.6686 700.593 68.0781 700.83C68.4901 701.064 68.8061 701.393 69.0263 701.817C69.2488 702.238 69.3601 702.729 69.3601 703.29C69.3601 703.849 69.2488 704.34 69.0263 704.764C68.8061 705.186 68.4901 705.515 68.0781 705.751C67.6686 705.986 67.1773 706.103 66.6044 706.103ZM66.6151 704.793C66.8234 704.793 66.9998 704.729 67.1442 704.601C67.2886 704.473 67.3987 704.295 67.4744 704.068C67.5526 703.841 67.5916 703.578 67.5916 703.28C67.5916 702.977 67.5526 702.712 67.4744 702.484C67.3987 702.257 67.2886 702.08 67.1442 701.952C66.9998 701.824 66.8234 701.76 66.6151 701.76C66.3996 701.76 66.2173 701.824 66.0682 701.952C65.9214 702.08 65.8089 702.257 65.7308 702.484C65.6551 702.712 65.6172 702.977 65.6172 703.28C65.6172 703.578 65.6551 703.841 65.7308 704.068C65.8089 704.295 65.9214 704.473 66.0682 704.601C66.2173 704.729 66.3996 704.793 66.6151 704.793ZM71.9862 698.727V706H70.2496V698.727H71.9862ZM73.0914 706V700.545H74.8279V706H73.0914ZM73.9615 699.91C73.7176 699.91 73.5081 699.829 73.3329 699.668C73.1577 699.505 73.0701 699.308 73.0701 699.079C73.0701 698.852 73.1577 698.657 73.3329 698.496C73.5081 698.333 73.7176 698.251 73.9615 698.251C74.2077 698.251 74.4172 698.333 74.59 698.496C74.7652 698.657 74.8528 698.852 74.8528 699.079C74.8528 699.308 74.7652 699.505 74.59 699.668C74.4172 699.829 74.2077 699.91 73.9615 699.91ZM77.4993 704.569L77.5064 702.499H77.7479L79.282 700.545H81.2493L78.9695 703.344H78.5114L77.4993 704.569ZM75.9332 706V698.727H77.6697V706H75.9332ZM79.321 706L77.8935 703.734L79.0369 702.502L81.3274 706H79.321ZM87.3679 698.727V706H85.6136V700.368H85.571L83.9446 701.362V699.842L85.7379 698.727H87.3679ZM88.9757 706V704.736L91.6284 702.413C91.8272 702.233 91.9965 702.069 92.1362 701.92C92.2759 701.768 92.3824 701.617 92.4558 701.465C92.5292 701.311 92.5659 701.144 92.5659 700.964C92.5659 700.763 92.5221 700.592 92.4345 700.45C92.3469 700.305 92.2261 700.194 92.0723 700.116C91.9184 700.038 91.742 699.999 91.5431 699.999C91.3419 699.999 91.1655 700.04 91.014 700.123C90.8625 700.203 90.7441 700.321 90.6589 700.474C90.5761 700.628 90.5346 700.815 90.5346 701.036H88.8691C88.8691 700.541 88.9804 700.113 89.2029 699.754C89.4255 699.394 89.738 699.117 90.1404 698.923C90.5453 698.726 91.0152 698.628 91.5502 698.628C92.1019 698.628 92.5813 698.72 92.9885 698.905C93.3957 699.089 93.7105 699.348 93.9331 699.679C94.158 700.008 94.2704 700.39 94.2704 700.826C94.2704 701.103 94.2148 701.378 94.1035 701.65C93.9922 701.922 93.7922 702.223 93.5034 702.552C93.2169 702.881 92.8097 703.275 92.2818 703.734L91.4118 704.537V704.583H94.3592V706H88.9757Z"
    fill="white"/>
  <circle cx="230" cy="538" r="25" fill="#008D06"/>
  <path
    d="M217.482 536.908C217.458 536.647 217.353 536.445 217.165 536.3C216.981 536.154 216.717 536.08 216.374 536.08C216.146 536.08 215.957 536.11 215.805 536.169C215.654 536.228 215.54 536.31 215.464 536.414C215.389 536.516 215.35 536.633 215.347 536.766C215.343 536.875 215.364 536.97 215.411 537.053C215.461 537.136 215.532 537.21 215.624 537.273C215.719 537.335 215.833 537.389 215.965 537.437C216.098 537.484 216.247 537.526 216.413 537.561L217.038 537.703C217.397 537.781 217.715 537.885 217.989 538.016C218.266 538.146 218.498 538.301 218.685 538.481C218.875 538.661 219.018 538.868 219.115 539.102C219.212 539.337 219.262 539.599 219.264 539.891C219.262 540.35 219.146 540.744 218.916 541.073C218.687 541.402 218.356 541.654 217.925 541.83C217.497 542.005 216.98 542.092 216.374 542.092C215.765 542.092 215.235 542.001 214.783 541.819C214.33 541.637 213.979 541.36 213.728 540.988C213.477 540.616 213.348 540.146 213.341 539.578H215.024C215.038 539.812 215.101 540.008 215.212 540.164C215.324 540.32 215.476 540.439 215.67 540.519C215.867 540.6 216.094 540.64 216.352 540.64C216.589 540.64 216.79 540.608 216.956 540.544C217.124 540.48 217.253 540.391 217.343 540.278C217.433 540.164 217.479 540.034 217.482 539.887C217.479 539.75 217.437 539.633 217.354 539.536C217.271 539.436 217.143 539.351 216.97 539.28C216.8 539.206 216.582 539.139 216.317 539.077L215.557 538.9C214.927 538.755 214.431 538.522 214.069 538.2C213.707 537.876 213.527 537.438 213.529 536.886C213.527 536.437 213.647 536.042 213.891 535.704C214.135 535.365 214.473 535.101 214.903 534.912C215.334 534.723 215.826 534.628 216.377 534.628C216.941 534.628 217.429 534.724 217.844 534.915C218.26 535.105 218.584 535.371 218.813 535.714C219.043 536.058 219.16 536.455 219.165 536.908H217.482ZM223.231 536.545V537.824H219.79V536.545H223.231ZM220.511 535.239H222.247V540.285C222.247 540.391 222.264 540.478 222.297 540.544C222.332 540.608 222.383 540.654 222.45 540.683C222.516 540.709 222.595 540.722 222.688 540.722C222.754 540.722 222.824 540.716 222.897 540.704C222.973 540.69 223.03 540.678 223.067 540.668L223.33 541.922C223.247 541.946 223.13 541.975 222.979 542.011C222.83 542.046 222.651 542.069 222.442 542.078C222.035 542.097 221.686 542.05 221.395 541.936C221.106 541.82 220.885 541.64 220.731 541.396C220.579 541.152 220.506 540.846 220.511 540.477V535.239ZM226.604 542.103C226.031 542.103 225.539 541.986 225.127 541.751C224.718 541.515 224.402 541.186 224.179 540.764C223.959 540.34 223.849 539.849 223.849 539.29C223.849 538.729 223.959 538.238 224.179 537.817C224.402 537.393 224.718 537.064 225.127 536.83C225.539 536.593 226.031 536.474 226.604 536.474C227.177 536.474 227.669 536.593 228.078 536.83C228.49 537.064 228.806 537.393 229.026 537.817C229.249 538.238 229.36 538.729 229.36 539.29C229.36 539.849 229.249 540.34 229.026 540.764C228.806 541.186 228.49 541.515 228.078 541.751C227.669 541.986 227.177 542.103 226.604 542.103ZM226.615 540.793C226.823 540.793 227 540.729 227.144 540.601C227.289 540.473 227.399 540.295 227.474 540.068C227.553 539.841 227.592 539.578 227.592 539.28C227.592 538.977 227.553 538.712 227.474 538.484C227.399 538.257 227.289 538.08 227.144 537.952C227 537.824 226.823 537.76 226.615 537.76C226.4 537.76 226.217 537.824 226.068 537.952C225.921 538.08 225.809 538.257 225.731 538.484C225.655 538.712 225.617 538.977 225.617 539.28C225.617 539.578 225.655 539.841 225.731 540.068C225.809 540.295 225.921 540.473 226.068 540.601C226.217 540.729 226.4 540.793 226.615 540.793ZM231.986 534.727V542H230.25V534.727H231.986ZM233.091 542V536.545H234.828V542H233.091ZM233.961 535.91C233.718 535.91 233.508 535.829 233.333 535.668C233.158 535.505 233.07 535.308 233.07 535.079C233.07 534.852 233.158 534.657 233.333 534.496C233.508 534.333 233.718 534.251 233.961 534.251C234.208 534.251 234.417 534.333 234.59 534.496C234.765 534.657 234.853 534.852 234.853 535.079C234.853 535.308 234.765 535.505 234.59 535.668C234.417 535.829 234.208 535.91 233.961 535.91ZM237.499 540.569L237.506 538.499H237.748L239.282 536.545H241.249L238.969 539.344H238.511L237.499 540.569ZM235.933 542V534.727H237.67V542H235.933ZM239.321 542L237.893 539.734L239.037 538.502L241.327 542H239.321ZM246.846 542.099C246.28 542.099 245.775 542.009 245.33 541.83C244.887 541.647 244.539 541.401 244.286 541.091C244.035 540.778 243.909 540.426 243.909 540.033C243.909 539.732 243.981 539.456 244.126 539.205C244.27 538.954 244.465 538.746 244.712 538.58C244.96 538.412 245.237 538.304 245.543 538.257V538.2C245.143 538.127 244.815 537.941 244.559 537.643C244.306 537.344 244.179 536.995 244.179 536.595C244.179 536.216 244.294 535.879 244.523 535.583C244.755 535.287 245.071 535.054 245.472 534.884C245.874 534.713 246.332 534.628 246.846 534.628C247.36 534.628 247.817 534.713 248.217 534.884C248.619 535.054 248.935 535.287 249.165 535.583C249.397 535.879 249.513 536.216 249.513 536.595C249.513 536.998 249.384 537.348 249.126 537.646C248.87 537.942 248.545 538.127 248.149 538.2V538.257C248.452 538.304 248.727 538.412 248.973 538.58C249.222 538.746 249.418 538.954 249.562 539.205C249.709 539.456 249.783 539.732 249.783 540.033C249.783 540.426 249.656 540.778 249.403 541.091C249.149 541.401 248.801 541.647 248.359 541.83C247.918 542.009 247.414 542.099 246.846 542.099ZM246.846 540.853C247.061 540.853 247.251 540.813 247.414 540.732C247.577 540.649 247.705 540.535 247.798 540.388C247.892 540.241 247.94 540.075 247.94 539.891C247.94 539.701 247.892 539.533 247.798 539.386C247.703 539.24 247.573 539.125 247.407 539.042C247.244 538.957 247.057 538.914 246.846 538.914C246.638 538.914 246.451 538.957 246.285 539.042C246.119 539.125 245.989 539.24 245.894 539.386C245.799 539.533 245.752 539.701 245.752 539.891C245.752 540.075 245.798 540.241 245.891 540.388C245.985 540.532 246.114 540.646 246.278 540.729C246.443 540.812 246.633 540.853 246.846 540.853ZM246.846 537.675C247.031 537.675 247.194 537.637 247.336 537.561C247.48 537.485 247.593 537.38 247.673 537.245C247.756 537.11 247.798 536.957 247.798 536.787C247.798 536.616 247.756 536.466 247.673 536.336C247.593 536.206 247.482 536.104 247.339 536.031C247.197 535.955 247.033 535.917 246.846 535.917C246.661 535.917 246.497 535.955 246.352 536.031C246.208 536.104 246.095 536.206 246.015 536.336C245.934 536.466 245.894 536.616 245.894 536.787C245.894 536.957 245.934 537.11 246.015 537.245C246.098 537.378 246.211 537.483 246.356 537.561C246.5 537.637 246.664 537.675 246.846 537.675Z"
    fill="white"/>
  <circle cx="172" cy="607" r="25" fill="#008D06"/>
  <path
    d="M155.482 605.908C155.458 605.647 155.353 605.445 155.165 605.3C154.981 605.154 154.717 605.08 154.374 605.08C154.146 605.08 153.957 605.11 153.805 605.169C153.654 605.228 153.54 605.31 153.464 605.414C153.389 605.516 153.35 605.633 153.347 605.766C153.343 605.875 153.364 605.97 153.411 606.053C153.461 606.136 153.532 606.21 153.624 606.273C153.719 606.335 153.833 606.389 153.965 606.437C154.098 606.484 154.247 606.526 154.413 606.561L155.038 606.703C155.397 606.781 155.715 606.885 155.989 607.016C156.266 607.146 156.498 607.301 156.685 607.481C156.875 607.661 157.018 607.868 157.115 608.102C157.212 608.337 157.262 608.599 157.264 608.891C157.262 609.35 157.146 609.744 156.916 610.073C156.687 610.402 156.356 610.654 155.925 610.83C155.497 611.005 154.98 611.092 154.374 611.092C153.765 611.092 153.235 611.001 152.783 610.819C152.33 610.637 151.979 610.36 151.728 609.988C151.477 609.616 151.348 609.146 151.341 608.578H153.024C153.038 608.812 153.101 609.008 153.212 609.164C153.324 609.32 153.476 609.439 153.67 609.519C153.867 609.6 154.094 609.64 154.352 609.64C154.589 609.64 154.79 609.608 154.956 609.544C155.124 609.48 155.253 609.391 155.343 609.278C155.433 609.164 155.479 609.034 155.482 608.887C155.479 608.75 155.437 608.633 155.354 608.536C155.271 608.436 155.143 608.351 154.97 608.28C154.8 608.206 154.582 608.139 154.317 608.077L153.557 607.9C152.927 607.755 152.431 607.522 152.069 607.2C151.707 606.876 151.527 606.438 151.529 605.886C151.527 605.437 151.647 605.042 151.891 604.704C152.135 604.365 152.473 604.101 152.903 603.912C153.334 603.723 153.826 603.628 154.377 603.628C154.941 603.628 155.429 603.724 155.844 603.915C156.26 604.105 156.584 604.371 156.813 604.714C157.043 605.058 157.16 605.455 157.165 605.908H155.482ZM161.231 605.545V606.824H157.79V605.545H161.231ZM158.511 604.239H160.247V609.285C160.247 609.391 160.264 609.478 160.297 609.544C160.332 609.608 160.383 609.654 160.45 609.683C160.516 609.709 160.595 609.722 160.688 609.722C160.754 609.722 160.824 609.716 160.897 609.704C160.973 609.69 161.03 609.678 161.067 609.668L161.33 610.922C161.247 610.946 161.13 610.975 160.979 611.011C160.83 611.046 160.651 611.069 160.442 611.078C160.035 611.097 159.686 611.05 159.395 610.936C159.106 610.82 158.885 610.64 158.731 610.396C158.579 610.152 158.506 609.846 158.511 609.477V604.239ZM164.604 611.103C164.031 611.103 163.539 610.986 163.127 610.751C162.718 610.515 162.402 610.186 162.179 609.764C161.959 609.34 161.849 608.849 161.849 608.29C161.849 607.729 161.959 607.238 162.179 606.817C162.402 606.393 162.718 606.064 163.127 605.83C163.539 605.593 164.031 605.474 164.604 605.474C165.177 605.474 165.669 605.593 166.078 605.83C166.49 606.064 166.806 606.393 167.026 606.817C167.249 607.238 167.36 607.729 167.36 608.29C167.36 608.849 167.249 609.34 167.026 609.764C166.806 610.186 166.49 610.515 166.078 610.751C165.669 610.986 165.177 611.103 164.604 611.103ZM164.615 609.793C164.823 609.793 165 609.729 165.144 609.601C165.289 609.473 165.399 609.295 165.474 609.068C165.553 608.841 165.592 608.578 165.592 608.28C165.592 607.977 165.553 607.712 165.474 607.484C165.399 607.257 165.289 607.08 165.144 606.952C165 606.824 164.823 606.76 164.615 606.76C164.4 606.76 164.217 606.824 164.068 606.952C163.921 607.08 163.809 607.257 163.731 607.484C163.655 607.712 163.617 607.977 163.617 608.28C163.617 608.578 163.655 608.841 163.731 609.068C163.809 609.295 163.921 609.473 164.068 609.601C164.217 609.729 164.4 609.793 164.615 609.793ZM169.986 603.727V611H168.25V603.727H169.986ZM171.091 611V605.545H172.828V611H171.091ZM171.961 604.91C171.718 604.91 171.508 604.829 171.333 604.668C171.158 604.505 171.07 604.308 171.07 604.079C171.07 603.852 171.158 603.657 171.333 603.496C171.508 603.333 171.718 603.251 171.961 603.251C172.208 603.251 172.417 603.333 172.59 603.496C172.765 603.657 172.853 603.852 172.853 604.079C172.853 604.308 172.765 604.505 172.59 604.668C172.417 604.829 172.208 604.91 171.961 604.91ZM175.499 609.569L175.506 607.499H175.748L177.282 605.545H179.249L176.969 608.344H176.511L175.499 609.569ZM173.933 611V603.727H175.67V611H173.933ZM177.321 611L175.893 608.734L177.037 607.502L179.327 611H177.321ZM185.368 603.727V611H183.614V605.368H183.571L181.945 606.362V604.842L183.738 603.727H185.368ZM189.983 611.178C189.349 611.178 188.802 611.027 188.343 610.727C187.884 610.424 187.53 609.989 187.281 609.423C187.032 608.855 186.909 608.172 186.912 607.374C186.914 606.576 187.038 605.899 187.285 605.343C187.533 604.784 187.886 604.359 188.343 604.068C188.802 603.775 189.349 603.628 189.983 603.628C190.618 603.628 191.165 603.775 191.624 604.068C192.086 604.359 192.441 604.784 192.689 605.343C192.938 605.902 193.061 606.579 193.059 607.374C193.059 608.174 192.934 608.859 192.686 609.427C192.437 609.995 192.083 610.429 191.624 610.73C191.167 611.028 190.62 611.178 189.983 611.178ZM189.983 609.739C190.362 609.739 190.669 609.546 190.903 609.161C191.138 608.772 191.254 608.177 191.251 607.374C191.251 606.849 191.198 606.415 191.091 606.075C190.985 605.731 190.837 605.476 190.648 605.308C190.458 605.139 190.237 605.055 189.983 605.055C189.607 605.055 189.303 605.246 189.071 605.627C188.839 606.006 188.722 606.588 188.719 607.374C188.717 607.907 188.768 608.348 188.872 608.699C188.979 609.049 189.128 609.311 189.319 609.484C189.511 609.654 189.733 609.739 189.983 609.739Z"
    fill="white"/>
  <circle cx="512" cy="132" r="25" fill="#008D06"/>
  <path
    d="M499.482 130.908C499.458 130.647 499.353 130.445 499.165 130.3C498.981 130.154 498.717 130.08 498.374 130.08C498.146 130.08 497.957 130.11 497.805 130.169C497.654 130.228 497.54 130.31 497.464 130.414C497.389 130.516 497.35 130.633 497.347 130.766C497.343 130.875 497.364 130.97 497.411 131.053C497.461 131.136 497.532 131.21 497.624 131.273C497.719 131.335 497.833 131.389 497.965 131.437C498.098 131.484 498.247 131.526 498.413 131.561L499.038 131.703C499.397 131.781 499.715 131.885 499.989 132.016C500.266 132.146 500.498 132.301 500.685 132.481C500.875 132.661 501.018 132.868 501.115 133.102C501.212 133.337 501.262 133.599 501.264 133.891C501.262 134.35 501.146 134.744 500.916 135.073C500.687 135.402 500.356 135.654 499.925 135.83C499.497 136.005 498.98 136.092 498.374 136.092C497.765 136.092 497.235 136.001 496.783 135.819C496.33 135.637 495.979 135.36 495.728 134.988C495.477 134.616 495.348 134.146 495.341 133.578H497.024C497.038 133.812 497.101 134.008 497.212 134.164C497.324 134.32 497.476 134.439 497.67 134.519C497.867 134.6 498.094 134.64 498.352 134.64C498.589 134.64 498.79 134.608 498.956 134.544C499.124 134.48 499.253 134.391 499.343 134.278C499.433 134.164 499.479 134.034 499.482 133.887C499.479 133.75 499.437 133.633 499.354 133.536C499.271 133.436 499.143 133.351 498.97 133.28C498.8 133.206 498.582 133.139 498.317 133.077L497.557 132.9C496.927 132.755 496.431 132.522 496.069 132.2C495.707 131.876 495.527 131.438 495.529 130.886C495.527 130.437 495.647 130.042 495.891 129.704C496.135 129.365 496.473 129.101 496.903 128.912C497.334 128.723 497.826 128.628 498.377 128.628C498.941 128.628 499.429 128.724 499.844 128.915C500.26 129.105 500.584 129.371 500.813 129.714C501.043 130.058 501.16 130.455 501.165 130.908H499.482ZM505.231 130.545V131.824H501.79V130.545H505.231ZM502.511 129.239H504.247V134.285C504.247 134.391 504.264 134.478 504.297 134.544C504.332 134.608 504.383 134.654 504.45 134.683C504.516 134.709 504.595 134.722 504.688 134.722C504.754 134.722 504.824 134.716 504.897 134.704C504.973 134.69 505.03 134.678 505.067 134.668L505.33 135.922C505.247 135.946 505.13 135.975 504.979 136.011C504.83 136.046 504.651 136.069 504.442 136.078C504.035 136.097 503.686 136.05 503.395 135.936C503.106 135.82 502.885 135.64 502.731 135.396C502.579 135.152 502.506 134.846 502.511 134.477V129.239ZM508.604 136.103C508.031 136.103 507.539 135.986 507.127 135.751C506.718 135.515 506.402 135.186 506.179 134.764C505.959 134.34 505.849 133.849 505.849 133.29C505.849 132.729 505.959 132.238 506.179 131.817C506.402 131.393 506.718 131.064 507.127 130.83C507.539 130.593 508.031 130.474 508.604 130.474C509.177 130.474 509.669 130.593 510.078 130.83C510.49 131.064 510.806 131.393 511.026 131.817C511.249 132.238 511.36 132.729 511.36 133.29C511.36 133.849 511.249 134.34 511.026 134.764C510.806 135.186 510.49 135.515 510.078 135.751C509.669 135.986 509.177 136.103 508.604 136.103ZM508.615 134.793C508.823 134.793 509 134.729 509.144 134.601C509.289 134.473 509.399 134.295 509.474 134.068C509.553 133.841 509.592 133.578 509.592 133.28C509.592 132.977 509.553 132.712 509.474 132.484C509.399 132.257 509.289 132.08 509.144 131.952C509 131.824 508.823 131.76 508.615 131.76C508.4 131.76 508.217 131.824 508.068 131.952C507.921 132.08 507.809 132.257 507.731 132.484C507.655 132.712 507.617 132.977 507.617 133.28C507.617 133.578 507.655 133.841 507.731 134.068C507.809 134.295 507.921 134.473 508.068 134.601C508.217 134.729 508.4 134.793 508.615 134.793ZM513.986 128.727V136H512.25V128.727H513.986ZM515.091 136V130.545H516.828V136H515.091ZM515.961 129.91C515.718 129.91 515.508 129.829 515.333 129.668C515.158 129.505 515.07 129.308 515.07 129.079C515.07 128.852 515.158 128.657 515.333 128.496C515.508 128.333 515.718 128.251 515.961 128.251C516.208 128.251 516.417 128.333 516.59 128.496C516.765 128.657 516.853 128.852 516.853 129.079C516.853 129.308 516.765 129.505 516.59 129.668C516.417 129.829 516.208 129.91 515.961 129.91ZM519.499 134.569L519.506 132.499H519.748L521.282 130.545H523.249L520.969 133.344H520.511L519.499 134.569ZM517.933 136V128.727H519.67V136H517.933ZM521.321 136L519.893 133.734L521.037 132.502L523.327 136H521.321ZM526.005 136V134.736L528.658 132.413C528.857 132.233 529.026 132.069 529.165 131.92C529.305 131.768 529.412 131.617 529.485 131.465C529.558 131.311 529.595 131.144 529.595 130.964C529.595 130.763 529.551 130.592 529.464 130.45C529.376 130.305 529.255 130.194 529.102 130.116C528.948 130.038 528.771 129.999 528.572 129.999C528.371 129.999 528.195 130.04 528.043 130.123C527.892 130.203 527.773 130.321 527.688 130.474C527.605 130.628 527.564 130.815 527.564 131.036H525.898C525.898 130.541 526.01 130.113 526.232 129.754C526.455 129.394 526.767 129.117 527.17 128.923C527.575 128.726 528.045 128.628 528.58 128.628C529.131 128.628 529.611 128.72 530.018 128.905C530.425 129.089 530.74 129.348 530.962 129.679C531.187 130.008 531.3 130.39 531.3 130.826C531.3 131.103 531.244 131.378 531.133 131.65C531.022 131.922 530.821 132.223 530.533 132.552C530.246 132.881 529.839 133.275 529.311 133.734L528.441 134.537V134.583H531.388V136H526.005Z"
    fill="white"/>
  <rect x="31" y="538" width="42" height="79" fill="#008D06"/>
  <path
    d="M50.9077 592.518C50.6473 592.542 50.4448 592.647 50.3004 592.835C50.1536 593.019 50.0803 593.283 50.0803 593.626C50.0803 593.854 50.1098 594.043 50.169 594.195C50.2282 594.346 50.3099 594.46 50.4141 594.536C50.5159 594.611 50.633 594.65 50.7656 594.653C50.8745 594.657 50.9704 594.636 51.0533 594.589C51.1361 594.539 51.2095 594.468 51.2734 594.376C51.335 594.281 51.3894 594.167 51.4368 594.035C51.4841 593.902 51.5256 593.753 51.5611 593.587L51.7031 592.962C51.7812 592.603 51.8854 592.285 52.0156 592.011C52.1458 591.734 52.3009 591.502 52.4808 591.315C52.6607 591.125 52.8679 590.982 53.1023 590.885C53.3366 590.788 53.5994 590.738 53.8906 590.736C54.3499 590.738 54.7441 590.854 55.0732 591.084C55.4022 591.313 55.6544 591.644 55.8295 592.075C56.0047 592.503 56.0923 593.02 56.0923 593.626C56.0923 594.235 56.0012 594.765 55.8189 595.217C55.6366 595.67 55.3596 596.021 54.9879 596.272C54.6162 596.523 54.1463 596.652 53.5781 596.659V594.976C53.8125 594.962 54.0078 594.899 54.1641 594.788C54.3203 594.676 54.4387 594.524 54.5192 594.33C54.5997 594.133 54.6399 593.906 54.6399 593.648C54.6399 593.411 54.608 593.21 54.544 593.044C54.4801 592.876 54.3913 592.747 54.2777 592.657C54.1641 592.567 54.0339 592.521 53.8871 592.518C53.7498 592.521 53.6326 592.563 53.5355 592.646C53.4361 592.729 53.3509 592.857 53.2798 593.03C53.2064 593.2 53.139 593.418 53.0774 593.683L52.8999 594.443C52.7554 595.073 52.5223 595.569 52.2003 595.931C51.8759 596.293 51.438 596.473 50.8864 596.471C50.4366 596.473 50.0424 596.353 49.7038 596.109C49.3653 595.865 49.1013 595.527 48.9119 595.097C48.7225 594.666 48.6278 594.174 48.6278 593.623C48.6278 593.059 48.7237 592.571 48.9155 592.156C49.1049 591.74 49.3712 591.416 49.7145 591.187C50.0578 590.957 50.4555 590.84 50.9077 590.835V592.518ZM50.5455 586.769H51.8239V590.21H50.5455V586.769ZM49.2386 589.489V587.753H54.2848C54.3913 587.753 54.4777 587.736 54.544 587.703C54.608 587.668 54.6541 587.617 54.6825 587.55C54.7086 587.484 54.7216 587.405 54.7216 587.312C54.7216 587.246 54.7157 587.176 54.7038 587.103C54.6896 587.027 54.6778 586.97 54.6683 586.933L55.9219 586.67C55.9455 586.753 55.9751 586.87 56.0107 587.021C56.0462 587.17 56.0687 587.349 56.0781 587.558C56.0971 587.965 56.0497 588.314 55.9361 588.605C55.8201 588.894 55.6402 589.115 55.3963 589.269C55.1525 589.421 54.8459 589.494 54.4766 589.489H49.2386ZM56.103 583.396C56.103 583.969 55.9858 584.461 55.7514 584.873C55.5147 585.282 55.1856 585.598 54.7642 585.821C54.3404 586.041 53.8492 586.151 53.2905 586.151C52.7294 586.151 52.2382 586.041 51.8168 585.821C51.393 585.598 51.0639 585.282 50.8295 584.873C50.5928 584.461 50.4744 583.969 50.4744 583.396C50.4744 582.823 50.5928 582.331 50.8295 581.922C51.0639 581.51 51.393 581.194 51.8168 580.974C52.2382 580.751 52.7294 580.64 53.2905 580.64C53.8492 580.64 54.3404 580.751 54.7642 580.974C55.1856 581.194 55.5147 581.51 55.7514 581.922C55.9858 582.331 56.103 582.823 56.103 583.396ZM54.7926 583.385C54.7926 583.177 54.7287 583 54.6009 582.856C54.473 582.711 54.2955 582.601 54.0682 582.526C53.8409 582.447 53.5781 582.408 53.2798 582.408C52.9768 582.408 52.7116 582.447 52.4844 582.526C52.2571 582.601 52.0795 582.711 51.9517 582.856C51.8239 583 51.7599 583.177 51.7599 583.385C51.7599 583.6 51.8239 583.783 51.9517 583.932C52.0795 584.079 52.2571 584.191 52.4844 584.269C52.7116 584.345 52.9768 584.383 53.2798 584.383C53.5781 584.383 53.8409 584.345 54.0682 584.269C54.2955 584.191 54.473 584.079 54.6009 583.932C54.7287 583.783 54.7926 583.6 54.7926 583.385ZM48.7273 578.014H56V579.75H48.7273V578.014ZM56 576.909H50.5455V575.172H56V576.909ZM49.9098 576.039C49.9098 576.282 49.8293 576.492 49.6683 576.667C49.505 576.842 49.3085 576.93 49.0788 576.93C48.8516 576.93 48.6574 576.842 48.4964 576.667C48.3331 576.492 48.2514 576.282 48.2514 576.039C48.2514 575.792 48.3331 575.583 48.4964 575.41C48.6574 575.235 48.8516 575.147 49.0788 575.147C49.3085 575.147 49.505 575.235 49.6683 575.41C49.8293 575.583 49.9098 575.792 49.9098 576.039ZM54.5689 572.501L52.4986 572.494V572.252L50.5455 570.718V568.751L53.3438 571.031V571.489L54.5689 572.501ZM56 574.067H48.7273V572.33H56V574.067ZM56 570.679L53.7344 572.107L52.5021 570.963L56 568.673V570.679ZM48.7273 562.632H56V564.386H50.3679V564.429L51.3622 566.055H49.8423L48.7273 564.262V562.632ZM54.7926 561.113H53.4219L48.7273 558.134V556.916H50.5881V557.622L53.3509 559.366H53.4077V555.051H54.7926V561.113ZM56 557.601H54.3736L53.7734 557.566H48.7273V555.921H56V557.601Z"
    fill="white"/>
  <rect x="73" y="313" width="267" height="87" fill="#D9D9D9"/>
  <path
    d="M51.7514 145V123.182H59.1236C60.8281 123.182 62.2273 123.473 63.321 124.055C64.4148 124.631 65.2244 125.423 65.75 126.431C66.2756 127.44 66.5384 128.587 66.5384 129.872C66.5384 131.158 66.2756 132.298 65.75 133.292C65.2244 134.286 64.4183 135.067 63.3317 135.636C62.245 136.197 60.8565 136.477 59.1662 136.477H53.2003V134.091H59.081C60.2457 134.091 61.1832 133.92 61.8935 133.58C62.6108 133.239 63.1293 132.756 63.4489 132.131C63.7756 131.499 63.9389 130.746 63.9389 129.872C63.9389 128.999 63.7756 128.235 63.4489 127.582C63.1222 126.928 62.6001 126.424 61.8828 126.069C61.1655 125.707 60.2173 125.526 59.0384 125.526H54.3935V145H51.7514ZM62.0213 135.199L67.3906 145H64.3224L59.0384 135.199H62.0213ZM77.0719 145.341C75.5946 145.341 74.2985 144.989 73.1834 144.286C72.0755 143.583 71.209 142.599 70.584 141.335C69.9661 140.071 69.6571 138.594 69.6571 136.903C69.6571 135.199 69.9661 133.711 70.584 132.44C71.209 131.168 72.0755 130.181 73.1834 129.478C74.2985 128.775 75.5946 128.423 77.0719 128.423C78.5492 128.423 79.8418 128.775 80.9498 129.478C82.0648 130.181 82.9313 131.168 83.5492 132.44C84.1742 133.711 84.4867 135.199 84.4867 136.903C84.4867 138.594 84.1742 140.071 83.5492 141.335C82.9313 142.599 82.0648 143.583 80.9498 144.286C79.8418 144.989 78.5492 145.341 77.0719 145.341ZM77.0719 143.082C78.1941 143.082 79.1174 142.795 79.8418 142.219C80.5662 141.644 81.1025 140.888 81.4505 139.95C81.7985 139.013 81.9725 137.997 81.9725 136.903C81.9725 135.81 81.7985 134.79 81.4505 133.846C81.1025 132.901 80.5662 132.138 79.8418 131.555C79.1174 130.973 78.1941 130.682 77.0719 130.682C75.9498 130.682 75.0265 130.973 74.302 131.555C73.5776 132.138 73.0414 132.901 72.6934 133.846C72.3453 134.79 72.1713 135.81 72.1713 136.903C72.1713 137.997 72.3453 139.013 72.6934 139.95C73.0414 140.888 73.5776 141.644 74.302 142.219C75.0265 142.795 75.9498 143.082 77.0719 143.082ZM87.8558 145V143.082L97.1456 131.151V130.98H88.1541V128.636H100.384V130.639L91.3501 142.486V142.656H100.683V145H87.8558ZM104.555 145V128.636H106.984V131.193H107.197C107.538 130.32 108.088 129.641 108.848 129.158C109.608 128.668 110.521 128.423 111.586 128.423C112.666 128.423 113.564 128.668 114.282 129.158C115.006 129.641 115.571 130.32 115.975 131.193H116.146C116.565 130.348 117.194 129.677 118.032 129.18C118.87 128.675 119.875 128.423 121.047 128.423C122.51 128.423 123.706 128.881 124.637 129.798C125.567 130.707 126.032 132.124 126.032 134.048V145H123.518V134.048C123.518 132.841 123.188 131.978 122.527 131.46C121.867 130.941 121.089 130.682 120.194 130.682C119.044 130.682 118.152 131.03 117.52 131.726C116.888 132.415 116.572 133.288 116.572 134.347V145H114.015V133.793C114.015 132.862 113.713 132.113 113.11 131.545C112.506 130.969 111.728 130.682 110.777 130.682C110.123 130.682 109.512 130.856 108.944 131.204C108.383 131.552 107.929 132.035 107.581 132.653C107.24 133.263 107.069 133.97 107.069 134.773V145H104.555ZM130.629 145V128.636H133.143V145H130.629ZM131.908 125.909C131.418 125.909 130.995 125.742 130.64 125.408C130.292 125.075 130.118 124.673 130.118 124.205C130.118 123.736 130.292 123.335 130.64 123.001C130.995 122.667 131.418 122.5 131.908 122.5C132.398 122.5 132.817 122.667 133.165 123.001C133.52 123.335 133.697 123.736 133.697 124.205C133.697 124.673 133.52 125.075 133.165 125.408C132.817 125.742 132.398 125.909 131.908 125.909ZM144.609 145.341C143.032 145.341 141.672 144.993 140.529 144.297C139.393 143.594 138.515 142.614 137.898 141.357C137.287 140.092 136.981 138.622 136.981 136.946C136.981 135.27 137.287 133.793 137.898 132.514C138.515 131.229 139.375 130.227 140.476 129.51C141.584 128.786 142.876 128.423 144.354 128.423C145.206 128.423 146.047 128.565 146.878 128.849C147.709 129.134 148.466 129.595 149.148 130.234C149.829 130.866 150.373 131.705 150.778 132.749C151.182 133.793 151.385 135.078 151.385 136.605V137.67H138.771V135.497H148.828C148.828 134.574 148.643 133.75 148.274 133.026C147.912 132.301 147.393 131.729 146.719 131.31C146.051 130.891 145.263 130.682 144.354 130.682C143.352 130.682 142.486 130.93 141.754 131.428C141.03 131.918 140.472 132.557 140.081 133.345C139.691 134.134 139.496 134.979 139.496 135.881V137.33C139.496 138.565 139.709 139.613 140.135 140.472C140.568 141.325 141.168 141.974 141.935 142.422C142.702 142.862 143.594 143.082 144.609 143.082C145.27 143.082 145.866 142.99 146.399 142.805C146.939 142.614 147.404 142.33 147.795 141.953C148.185 141.57 148.487 141.094 148.7 140.526L151.129 141.207C150.873 142.031 150.444 142.756 149.84 143.381C149.236 143.999 148.491 144.482 147.603 144.83C146.715 145.17 145.717 145.341 144.609 145.341ZM166.8 132.301L164.542 132.94C164.4 132.564 164.19 132.198 163.913 131.843C163.643 131.481 163.274 131.183 162.805 130.948C162.336 130.714 161.736 130.597 161.005 130.597C160.003 130.597 159.169 130.827 158.501 131.289C157.841 131.744 157.51 132.322 157.51 133.026C157.51 133.651 157.738 134.144 158.192 134.506C158.647 134.869 159.357 135.17 160.323 135.412L162.752 136.009C164.215 136.364 165.305 136.907 166.023 137.638C166.74 138.363 167.099 139.297 167.099 140.44C167.099 141.378 166.829 142.216 166.289 142.955C165.756 143.693 165.01 144.276 164.052 144.702C163.093 145.128 161.978 145.341 160.706 145.341C159.037 145.341 157.656 144.979 156.562 144.254C155.469 143.53 154.776 142.472 154.485 141.08L156.871 140.483C157.099 141.364 157.528 142.024 158.16 142.464C158.8 142.905 159.634 143.125 160.664 143.125C161.836 143.125 162.766 142.876 163.455 142.379C164.151 141.875 164.499 141.271 164.499 140.568C164.499 140 164.3 139.524 163.903 139.141C163.505 138.75 162.894 138.459 162.07 138.267L159.343 137.628C157.844 137.273 156.743 136.722 156.04 135.977C155.344 135.224 154.996 134.283 154.996 133.153C154.996 132.23 155.256 131.413 155.774 130.703C156.3 129.993 157.013 129.435 157.915 129.031C158.824 128.626 159.854 128.423 161.005 128.423C162.624 128.423 163.895 128.778 164.819 129.489C165.749 130.199 166.41 131.136 166.8 132.301ZM170.414 145V143.082L179.704 131.151V130.98H170.713V128.636H182.943V130.639L173.909 142.486V142.656H183.241V145H170.414ZM193.293 145.341C191.759 145.341 190.438 144.979 189.33 144.254C188.222 143.53 187.369 142.532 186.773 141.261C186.176 139.989 185.878 138.537 185.878 136.903C185.878 135.241 186.183 133.775 186.794 132.504C187.412 131.225 188.271 130.227 189.372 129.51C190.48 128.786 191.773 128.423 193.25 128.423C194.401 128.423 195.438 128.636 196.361 129.062C197.284 129.489 198.04 130.085 198.63 130.852C199.219 131.619 199.585 132.514 199.727 133.537H197.213C197.021 132.791 196.595 132.131 195.935 131.555C195.281 130.973 194.401 130.682 193.293 130.682C192.313 130.682 191.453 130.937 190.714 131.449C189.983 131.953 189.411 132.667 188.999 133.59C188.594 134.506 188.392 135.582 188.392 136.818C188.392 138.082 188.591 139.183 188.989 140.121C189.393 141.058 189.962 141.786 190.693 142.305C191.432 142.823 192.298 143.082 193.293 143.082C193.946 143.082 194.539 142.969 195.072 142.741C195.604 142.514 196.055 142.188 196.425 141.761C196.794 141.335 197.057 140.824 197.213 140.227H199.727C199.585 141.193 199.234 142.063 198.673 142.837C198.119 143.604 197.384 144.215 196.467 144.67C195.558 145.117 194.5 145.341 193.293 145.341ZM202.934 145V143.082L212.224 131.151V130.98H203.232V128.636H215.462V130.639L206.428 142.486V142.656H215.761V145H202.934ZM226.025 145.341C224.449 145.341 223.088 144.993 221.945 144.297C220.809 143.594 219.931 142.614 219.314 141.357C218.703 140.092 218.397 138.622 218.397 136.946C218.397 135.27 218.703 133.793 219.314 132.514C219.931 131.229 220.791 130.227 221.892 129.51C223 128.786 224.292 128.423 225.77 128.423C226.622 128.423 227.463 128.565 228.294 128.849C229.125 129.134 229.882 129.595 230.564 130.234C231.245 130.866 231.789 131.705 232.194 132.749C232.598 133.793 232.801 135.078 232.801 136.605V137.67H220.187V135.497H230.244C230.244 134.574 230.059 133.75 229.69 133.026C229.328 132.301 228.809 131.729 228.135 131.31C227.467 130.891 226.679 130.682 225.77 130.682C224.768 130.682 223.902 130.93 223.17 131.428C222.446 131.918 221.888 132.557 221.498 133.345C221.107 134.134 220.912 134.979 220.912 135.881V137.33C220.912 138.565 221.125 139.613 221.551 140.472C221.984 141.325 222.584 141.974 223.351 142.422C224.118 142.862 225.01 143.082 226.025 143.082C226.686 143.082 227.282 142.99 227.815 142.805C228.355 142.614 228.82 142.33 229.211 141.953C229.601 141.57 229.903 141.094 230.116 140.526L232.545 141.207C232.289 142.031 231.86 142.756 231.256 143.381C230.652 143.999 229.907 144.482 229.019 144.83C228.131 145.17 227.133 145.341 226.025 145.341ZM239.14 135.156V145H236.625V128.636H239.054V131.193H239.267C239.651 130.362 240.233 129.695 241.015 129.19C241.796 128.679 242.804 128.423 244.04 128.423C245.148 128.423 246.118 128.651 246.949 129.105C247.779 129.553 248.426 130.234 248.887 131.151C249.349 132.06 249.58 133.21 249.58 134.602V145H247.066V134.773C247.066 133.487 246.732 132.486 246.064 131.768C245.397 131.044 244.48 130.682 243.316 130.682C242.513 130.682 241.796 130.856 241.164 131.204C240.539 131.552 240.045 132.06 239.683 132.727C239.321 133.395 239.14 134.205 239.14 135.156ZM254.174 145V128.636H256.688V145H254.174ZM255.453 125.909C254.963 125.909 254.54 125.742 254.185 125.408C253.837 125.075 253.663 124.673 253.663 124.205C253.663 123.736 253.837 123.335 254.185 123.001C254.54 122.667 254.963 122.5 255.453 122.5C255.943 122.5 256.362 122.667 256.71 123.001C257.065 123.335 257.242 123.736 257.242 124.205C257.242 124.673 257.065 125.075 256.71 125.408C256.362 125.742 255.943 125.909 255.453 125.909ZM268.154 145.341C266.577 145.341 265.217 144.993 264.074 144.297C262.938 143.594 262.06 142.614 261.442 141.357C260.832 140.092 260.526 138.622 260.526 136.946C260.526 135.27 260.832 133.793 261.442 132.514C262.06 131.229 262.92 130.227 264.021 129.51C265.129 128.786 266.421 128.423 267.898 128.423C268.751 128.423 269.592 128.565 270.423 128.849C271.254 129.134 272.011 129.595 272.692 130.234C273.374 130.866 273.918 131.705 274.322 132.749C274.727 133.793 274.93 135.078 274.93 136.605V137.67H262.316V135.497H272.373C272.373 134.574 272.188 133.75 271.819 133.026C271.457 132.301 270.938 131.729 270.263 131.31C269.596 130.891 268.808 130.682 267.898 130.682C266.897 130.682 266.031 130.93 265.299 131.428C264.575 131.918 264.017 132.557 263.626 133.345C263.236 134.134 263.04 134.979 263.04 135.881V137.33C263.04 138.565 263.254 139.613 263.68 140.472C264.113 141.325 264.713 141.974 265.48 142.422C266.247 142.862 267.138 143.082 268.154 143.082C268.815 143.082 269.411 142.99 269.944 142.805C270.484 142.614 270.949 142.33 271.339 141.953C271.73 141.57 272.032 141.094 272.245 140.526L274.674 141.207C274.418 142.031 273.989 142.756 273.385 143.381C272.781 143.999 272.036 144.482 271.148 144.83C270.26 145.17 269.262 145.341 268.154 145.341ZM122.943 168.301L120.684 168.94C120.542 168.564 120.333 168.198 120.056 167.843C119.786 167.481 119.417 167.183 118.948 166.948C118.479 166.714 117.879 166.597 117.147 166.597C116.146 166.597 115.311 166.827 114.644 167.289C113.983 167.744 113.653 168.322 113.653 169.026C113.653 169.651 113.88 170.144 114.335 170.506C114.789 170.869 115.5 171.17 116.466 171.412L118.895 172.009C120.358 172.364 121.448 172.907 122.165 173.638C122.882 174.363 123.241 175.297 123.241 176.44C123.241 177.378 122.971 178.216 122.431 178.955C121.899 179.693 121.153 180.276 120.194 180.702C119.235 181.128 118.12 181.341 116.849 181.341C115.18 181.341 113.799 180.979 112.705 180.254C111.611 179.53 110.919 178.472 110.627 177.08L113.014 176.483C113.241 177.364 113.671 178.024 114.303 178.464C114.942 178.905 115.777 179.125 116.806 179.125C117.978 179.125 118.909 178.876 119.598 178.379C120.294 177.875 120.642 177.271 120.642 176.568C120.642 176 120.443 175.524 120.045 175.141C119.647 174.75 119.037 174.459 118.213 174.267L115.485 173.628C113.987 173.273 112.886 172.722 112.183 171.977C111.487 171.224 111.139 170.283 111.139 169.153C111.139 168.23 111.398 167.413 111.917 166.703C112.442 165.993 113.156 165.435 114.058 165.031C114.967 164.626 115.997 164.423 117.147 164.423C118.767 164.423 120.038 164.778 120.961 165.489C121.892 166.199 122.552 167.136 122.943 168.301ZM134.142 164.636V166.767H125.662V164.636H134.142ZM128.134 160.716H130.648V176.312C130.648 177.023 130.751 177.555 130.957 177.911C131.17 178.259 131.44 178.493 131.767 178.614C132.1 178.727 132.452 178.784 132.821 178.784C133.098 178.784 133.325 178.77 133.503 178.741C133.681 178.706 133.823 178.678 133.929 178.656L134.441 180.915C134.27 180.979 134.032 181.043 133.727 181.107C133.421 181.178 133.034 181.213 132.566 181.213C131.855 181.213 131.159 181.06 130.477 180.755C129.803 180.45 129.242 179.984 128.794 179.359C128.354 178.734 128.134 177.946 128.134 176.994V160.716ZM144.396 181.341C142.919 181.341 141.623 180.989 140.508 180.286C139.4 179.583 138.533 178.599 137.908 177.335C137.29 176.071 136.981 174.594 136.981 172.903C136.981 171.199 137.29 169.711 137.908 168.44C138.533 167.168 139.4 166.181 140.508 165.478C141.623 164.775 142.919 164.423 144.396 164.423C145.873 164.423 147.166 164.775 148.274 165.478C149.389 166.181 150.256 167.168 150.873 168.44C151.498 169.711 151.811 171.199 151.811 172.903C151.811 174.594 151.498 176.071 150.873 177.335C150.256 178.599 149.389 179.583 148.274 180.286C147.166 180.989 145.873 181.341 144.396 181.341ZM144.396 179.082C145.518 179.082 146.442 178.795 147.166 178.219C147.89 177.644 148.427 176.888 148.775 175.95C149.123 175.013 149.297 173.997 149.297 172.903C149.297 171.81 149.123 170.79 148.775 169.846C148.427 168.901 147.89 168.138 147.166 167.555C146.442 166.973 145.518 166.682 144.396 166.682C143.274 166.682 142.351 166.973 141.626 167.555C140.902 168.138 140.366 168.901 140.018 169.846C139.67 170.79 139.496 171.81 139.496 172.903C139.496 173.997 139.67 175.013 140.018 175.95C140.366 176.888 140.902 177.644 141.626 178.219C142.351 178.795 143.274 179.082 144.396 179.082ZM158.163 159.182V181H155.649V159.182H158.163ZM162.768 181V164.636H165.282V181H162.768ZM164.046 161.909C163.556 161.909 163.134 161.742 162.779 161.408C162.431 161.075 162.257 160.673 162.257 160.205C162.257 159.736 162.431 159.335 162.779 159.001C163.134 158.667 163.556 158.5 164.046 158.5C164.536 158.5 164.955 158.667 165.303 159.001C165.659 159.335 165.836 159.736 165.836 160.205C165.836 160.673 165.659 161.075 165.303 161.408C164.955 161.742 164.536 161.909 164.046 161.909ZM172.231 175.034L172.188 171.923H172.7L179.859 164.636H182.969L175.342 172.349H175.129L172.231 175.034ZM169.887 181V159.182H172.401V181H169.887ZM180.285 181L173.893 172.903L175.683 171.156L183.481 181H180.285ZM192.179 181.341C190.702 181.341 189.406 180.989 188.291 180.286C187.183 179.583 186.316 178.599 185.691 177.335C185.074 176.071 184.765 174.594 184.765 172.903C184.765 171.199 185.074 169.711 185.691 168.44C186.316 167.168 187.183 166.181 188.291 165.478C189.406 164.775 190.702 164.423 192.179 164.423C193.657 164.423 194.949 164.775 196.057 165.478C197.172 166.181 198.039 167.168 198.657 168.44C199.282 169.711 199.594 171.199 199.594 172.903C199.594 174.594 199.282 176.071 198.657 177.335C198.039 178.599 197.172 179.583 196.057 180.286C194.949 180.989 193.657 181.341 192.179 181.341ZM192.179 179.082C193.301 179.082 194.225 178.795 194.949 178.219C195.674 177.644 196.21 176.888 196.558 175.95C196.906 175.013 197.08 173.997 197.08 172.903C197.08 171.81 196.906 170.79 196.558 169.846C196.21 168.901 195.674 168.138 194.949 167.555C194.225 166.973 193.301 166.682 192.179 166.682C191.057 166.682 190.134 166.973 189.409 167.555C188.685 168.138 188.149 168.901 187.801 169.846C187.453 170.79 187.279 171.81 187.279 172.903C187.279 173.997 187.453 175.013 187.801 175.95C188.149 176.888 188.685 177.644 189.409 178.219C190.134 178.795 191.057 179.082 192.179 179.082ZM191.029 162.42L193.628 157.477H196.569L193.245 162.42H191.029ZM206.583 181L201.597 164.636H204.239L207.776 177.165H207.946L211.441 164.636H214.125L217.577 177.122H217.748L221.284 164.636H223.926L218.941 181H216.469L212.89 168.429H212.634L209.054 181H206.583Z"
    fill="#595959"/>
</svg>
